<svg id="Layer_1" data-name="Layer 1" xmlns="http://www.w3.org/2000/svg" xmlns:xlink="http://www.w3.org/1999/xlink" viewBox="0 0 360 90"><defs><style>.cls-1{fill:#151515;}.cls-2{fill:url(#radial-gradient);}</style><radialGradient id="radial-gradient" cx="131.48" cy="45" r="28.55" gradientUnits="userSpaceOnUse"><stop offset="0" stop-color="#d71f27"/><stop offset="1" stop-color="#951b1e"/></radialGradient></defs><title>Artboard 1</title><path id="path3383-2-6-1-1-1-5" class="cls-1" d="M171.11,41.28q0-5.23,0-7.16t.09-2.85a3.58,3.58,0,0,1,.48-1.84,2.11,2.11,0,0,1,1.52-.8q.48-.07.94-.1l.75,0a.55.55,0,0,0,.28-.07.24.24,0,0,0,.13-.21.29.29,0,0,0-.2-.29,1.68,1.68,0,0,0-.62-.08q-1.33,0-3.25.07L169,28l-2.13-.07q-1.81-.06-3.66-.07a1.67,1.67,0,0,0-.62.08.29.29,0,0,0-.2.29.24.24,0,0,0,.13.21.56.56,0,0,0,.28.07l.89,0a6.54,6.54,0,0,1,.85.1,2.62,2.62,0,0,1,1.7.85,3.19,3.19,0,0,1,.51,1.79q.07.92.09,2.85t0,7.16v8.15q0,3.36,0,6a40.28,40.28,0,0,1-.22,4.09,6.19,6.19,0,0,1-.44,1.71,1.4,1.4,0,0,1-1.05.84c-.24,0-.49.09-.77.13a5.69,5.69,0,0,1-.77.06.5.5,0,0,0-.32.09.24.24,0,0,0-.09.19.29.29,0,0,0,.2.29,1.6,1.6,0,0,0,.62.08l1.36,0,1.56-.07,1.36,0,.74,0q1.1,0,2.36,0l2.86.1,3.68.09q2.08,0,4.83.05a7.4,7.4,0,0,0,2.5-.23,1.37,1.37,0,0,0,.73-1,20.79,20.79,0,0,0,.54-2.63q.22-1.51.23-2a1.6,1.6,0,0,0-.06-.54.24.24,0,0,0-.25-.16.36.36,0,0,0-.33.17,1.09,1.09,0,0,0-.13.44,5.82,5.82,0,0,1-.47,1.44,5.6,5.6,0,0,1-.86,1.34A4.27,4.27,0,0,1,182,61a22.82,22.82,0,0,1-3.66.19,24.93,24.93,0,0,1-4.26-.26,3.61,3.61,0,0,1-1.88-.81q-.68-.57-.91-3.06t-.22-7.54Z"/><path id="path3385-6-1-7-3-2-3" class="cls-1" d="M198.66,55c0,.4,0,1,0,1.87s-.06,1.78-.13,2.78a4.29,4.29,0,0,1-.42,1.71,1.53,1.53,0,0,1-1.08.85l-.72.13a5.49,5.49,0,0,1-.73.06.45.45,0,0,0-.3.09.24.24,0,0,0-.08.19.29.29,0,0,0,.19.29A1.47,1.47,0,0,0,196,63q1.23,0,2.82-.07l1.92-.07,2.07.07q1.79.06,3.88.07c.52,0,.78-.13.77-.37a.24.24,0,0,0-.08-.19.44.44,0,0,0-.3-.09c-.24,0-.57,0-1-.06l-1.18-.13a2,2,0,0,1-1.5-.85,3.49,3.49,0,0,1-.48-1.71c-.07-1-.11-1.93-.13-2.78s0-1.48,0-1.87V51a18.87,18.87,0,0,1,.09-2.27,8.35,8.35,0,0,1,.63-2.38q.54-1.17,2.43-4.31t3.9-6.26q2-3.12,2.91-4.22A18.26,18.26,0,0,1,214,30.07a6.25,6.25,0,0,1,1.25-.92,4.71,4.71,0,0,1,1.2-.5,4.17,4.17,0,0,1,1-.15.92.92,0,0,0,.46-.1.31.31,0,0,0,.17-.27q0-.14-.19-.21a1.23,1.23,0,0,0-.44-.07l-2.58.07-2.11.07-1.27-.07q-.93-.06-1.92-.07a1.81,1.81,0,0,0-.57.07c-.14,0-.2.12-.21.21a.31.31,0,0,0,.2.27,3.34,3.34,0,0,0,.53.2.88.88,0,0,1,.6.46,1.8,1.8,0,0,1,.17.84,3.38,3.38,0,0,1-.17,1,5.66,5.66,0,0,1-.65,1.33q-.58.92-2.31,3.79t-3.45,5.81q-1.72,2.94-2.27,4.07-.55-.87-2.52-4.11T195,35.35q-2-3.24-2.46-4.11a7,7,0,0,1-.46-1,2.45,2.45,0,0,1-.17-.85.78.78,0,0,1,.17-.49,1.29,1.29,0,0,1,.46-.35l.53-.21c.13-.05.2-.12.2-.21a.25.25,0,0,0-.12-.23,1,1,0,0,0-.51-.09c-1,0-1.85,0-2.61.07L188.6,28l-2.14-.07-2.65-.07a1,1,0,0,0-.48.09.27.27,0,0,0-.15.23.28.28,0,0,0,.15.25.68.68,0,0,0,.33.08,3.23,3.23,0,0,1,.93.2,5.41,5.41,0,0,1,1.15.55,9.09,9.09,0,0,1,1.52,1.28A17.3,17.3,0,0,1,189,32.68q1,1.37,2.89,4.38t3.65,5.75q1.71,2.73,2,3.27a12.06,12.06,0,0,1,.79,2,10.87,10.87,0,0,1,.32,2.88Z"/><path id="path3387-0-54-1-8-0-9" class="cls-1" d="M238.42,30.28l6.12.09a11.45,11.45,0,0,1,4.68.78,2.1,2.1,0,0,1,1.29,1.75l0,.51a1.83,1.83,0,0,0,.12.63.27.27,0,0,0,.27.15.28.28,0,0,0,.24-.14.88.88,0,0,0,.1-.45q0-.52.07-2.2t.07-2.86a1.45,1.45,0,0,0,0-.38.21.21,0,0,0-.21-.17,3.15,3.15,0,0,0-.48.08c-.22,0-.52.1-.88.15a13.4,13.4,0,0,1-1.43.17c-.57,0-1.24.06-2,.06H228.17c-.32,0-.86,0-1.61-.06s-1.49-.1-2.23-.17a4.74,4.74,0,0,1-1.43-.31,2.66,2.66,0,0,0-.7-.24c-.1,0-.19.13-.28.33s-.15.38-.21.54q-.13.5-.57,2.36t-.5,2.42c0,.28.09.41.24.41a.36.36,0,0,0,.26-.09.92.92,0,0,0,.22-.37c.07-.15.15-.33.27-.54s.3-.5.56-.89a2.82,2.82,0,0,1,1.64-1.13,13.11,13.11,0,0,1,3.32-.34l7.19-.09V49.73q0,3.34,0,5.92c0,1.72-.1,3.07-.21,4.06a6.37,6.37,0,0,1-.41,1.69,1.34,1.34,0,0,1-1,.84l-.73.12a5.08,5.08,0,0,1-.73.06.47.47,0,0,0-.3.09.24.24,0,0,0-.09.19A.29.29,0,0,0,231,63a1.58,1.58,0,0,0,.59.08q1.23,0,2.84-.07l1.92-.07,2.08.07q1.79.06,3.9.07c.53,0,.79-.13.78-.37a.24.24,0,0,0-.08-.19.45.45,0,0,0-.3-.09c-.24,0-.57,0-1-.06l-1.18-.12a1.81,1.81,0,0,1-1.44-.84,4.1,4.1,0,0,1-.46-1.69c-.12-1-.19-2.34-.21-4.06s0-3.69,0-5.92Z"/><path id="path3389-1-20-1-7-1-2" class="cls-1" d="M263.72,41.36q0-5.21,0-7.14t.09-2.84a3.86,3.86,0,0,1,.44-1.84,1.83,1.83,0,0,1,1.35-.8l.69-.1a4.08,4.08,0,0,1,.52,0,.5.5,0,0,0,.27-.07.24.24,0,0,0,.12-.21A.29.29,0,0,0,267,28a1.5,1.5,0,0,0-.59-.08q-1.22,0-2.82.07l-1.91.07L259.76,28q-1.62-.06-2.95-.07a1.49,1.49,0,0,0-.59.08.29.29,0,0,0-.19.29.24.24,0,0,0,.12.21.5.5,0,0,0,.27.07,6.51,6.51,0,0,1,.68,0,6,6,0,0,1,.82.14,1.76,1.76,0,0,1,1.18.79,3.83,3.83,0,0,1,.46,1.79q.07.92.09,2.84t0,7.14v8.13q0,3.35,0,5.95t-.21,4.07a6.38,6.38,0,0,1-.41,1.7,1.33,1.33,0,0,1-1,.84l-.73.13a5.84,5.84,0,0,1-.72.06.46.46,0,0,0-.3.09.24.24,0,0,0-.08.19.29.29,0,0,0,.19.29,1.5,1.5,0,0,0,.58.08q1.23,0,2.82-.07l1.91-.07,2.06.07q1.78.06,3.88.07c.52,0,.78-.13.77-.37a.24.24,0,0,0-.09-.19.45.45,0,0,0-.3-.09c-.24,0-.57,0-1-.06l-1.18-.13a1.81,1.81,0,0,1-1.43-.84,4.2,4.2,0,0,1-.45-1.7q-.17-1.48-.21-4.07t0-5.95Z"/><path id="path3391-6-9-5-4-6-4" class="cls-1" d="M290.84,63.79a42.63,42.63,0,0,0,4.74-.25,16.7,16.7,0,0,0,3.88-.81,2.44,2.44,0,0,0,.84-.48,2.25,2.25,0,0,0,.41-.87,31.37,31.37,0,0,0,.71-3.44q.32-2.06.35-2.5a1.27,1.27,0,0,0-.08-.49.28.28,0,0,0-.26-.21.33.33,0,0,0-.31.16,1.54,1.54,0,0,0-.17.54,10.24,10.24,0,0,1-.56,1.88,6.31,6.31,0,0,1-1.21,2,7.34,7.34,0,0,1-3.53,1.87,20.38,20.38,0,0,1-4.79.45,17.48,17.48,0,0,1-9-2.44,17,17,0,0,1-8.24-14.55,22,22,0,0,1,.84-6.61,12.41,12.41,0,0,1,3.46-5.5,10.79,10.79,0,0,1,3.74-2.29,22.79,22.79,0,0,1,13-.3,11.08,11.08,0,0,1,3.83,1.84,5.34,5.34,0,0,1,1.47,2.07,7,7,0,0,1,.54,2.66,2.48,2.48,0,0,0,.07.73.3.3,0,0,0,.32.24.31.31,0,0,0,.3-.23,2.53,2.53,0,0,0,.13-.75c0-.41,0-1.1.05-2.08s0-1.88.09-2.7.1-1.41.16-1.79.08-.64.08-.81a.44.44,0,0,0-.11-.34.82.82,0,0,0-.51-.17q-1.14-.07-2.33-.26T296.15,28a35.93,35.93,0,0,0-3.63-.44q-1.84-.13-3.31-.12a25.29,25.29,0,0,0-9,1.44,16,16,0,0,0-5.61,3.53,17.49,17.49,0,0,0-4.28,6.71,18.21,18.21,0,0,0-1.08,5.95,20.42,20.42,0,0,0,1.15,7,16.15,16.15,0,0,0,4.64,6.73,18.71,18.71,0,0,0,6.62,3.74,29.43,29.43,0,0,0,9.17,1.27Z"/><path id="path3393-5-7-2-2-4-61" class="cls-1" d="M309.41,58a10.05,10.05,0,0,1-1.6,2.9,4,4,0,0,1-2.67,1.39l-.76.06-.72,0a.68.68,0,0,0-.33.07.23.23,0,0,0-.13.21.29.29,0,0,0,.24.28,2.35,2.35,0,0,0,.73.08q1.88,0,3.56-.07l2.19-.07,1.74.07c.82,0,1.57.06,2.23.07a1.5,1.5,0,0,0,.56-.08.3.3,0,0,0,.21-.28c0-.18-.16-.27-.51-.27h-.51a2.69,2.69,0,0,1-1.29-.32,1.15,1.15,0,0,1-.64-1,6.43,6.43,0,0,1,.18-1.41,11.54,11.54,0,0,1,.53-1.65l3.05-8.08a.53.53,0,0,1,.51-.36h10.95a.52.52,0,0,1,.29.07.57.57,0,0,1,.17.21L332.12,61a1.17,1.17,0,0,1,.08.85.6.6,0,0,1-.38.38.63.63,0,0,0-.25.11.25.25,0,0,0-.1.21c0,.13.14.21.4.25s.64.06,1.13.07q2.73.07,5,.08h3a2.59,2.59,0,0,0,.72-.08c.19-.05.29-.15.3-.28a.22.22,0,0,0-.14-.22,1,1,0,0,0-.37-.05,7.62,7.62,0,0,1-.92-.05,6.34,6.34,0,0,1-1.12-.22,4,4,0,0,1-1.9-1.11,13.06,13.06,0,0,1-2.48-4q-1.21-2.72-3.06-7t-3.75-8.73L325,33.55l-1.74-4.06a8.34,8.34,0,0,0-.68-1.35c-.16-.21-.3-.31-.45-.29s-.29.09-.45.33a9.84,9.84,0,0,0-.67,1.46Zm7.13-10.09a.19.19,0,0,1-.17-.07c0-.05,0-.13,0-.25l4.48-12.33c.26-.69.51-.69.76,0l4.84,12.33a.36.36,0,0,1,0,.23c0,.06-.09.09-.22.09Z"/><path id="path3396-5-2-6-7-6-1" class="cls-1" d="M24.25,58a10,10,0,0,1-1.61,2.9,4.06,4.06,0,0,1-2.69,1.39l-.76.06-.72,0a.67.67,0,0,0-.33.07.23.23,0,0,0-.13.2.29.29,0,0,0,.24.28A2.3,2.3,0,0,0,19,63q1.89,0,3.59-.07l2.2-.07,1.75.07q1.24.06,2.25.07a1.45,1.45,0,0,0,.56-.08.29.29,0,0,0,.21-.28c0-.18-.16-.27-.51-.27H28.5A2.72,2.72,0,0,1,27.2,62a1.15,1.15,0,0,1-.65-1,6.35,6.35,0,0,1,.19-1.41A11.48,11.48,0,0,1,27.27,58l3.07-8.08a.53.53,0,0,1,.51-.36h11a.51.51,0,0,1,.29.07.55.55,0,0,1,.17.21L47.1,61a1.16,1.16,0,0,1,.08.86.6.6,0,0,1-.38.38.63.63,0,0,0-.26.11.26.26,0,0,0-.1.21c0,.13.14.21.4.25s.64.06,1.13.07Q50.72,63,53,63h3a2.53,2.53,0,0,0,.72-.08c.19-.05.29-.15.3-.28a.22.22,0,0,0-.14-.22.92.92,0,0,0-.37-.05,8.22,8.22,0,0,1-.93-.05,6.63,6.63,0,0,1-1.12-.22A4,4,0,0,1,52.56,61a13,13,0,0,1-2.49-4Q48.85,54.31,47,50t-3.78-8.73l-3.34-7.75q-1.41-3.29-1.75-4.06a8.24,8.24,0,0,0-.68-1.35q-.23-.32-.45-.29c-.14,0-.29.09-.45.33a9.91,9.91,0,0,0-.68,1.46Zm7.17-10.09a.19.19,0,0,1-.17-.07c0-.05,0-.13,0-.25l4.51-12.33q.39-1,.77,0l4.87,12.33a.36.36,0,0,1,0,.23c0,.06-.09.09-.22.09Z"/><path id="path3398-4-6-1-9-1-1" class="cls-1" d="M65.57,34.87q1.35,1.36,5.07,5T78.94,48q2.8,2.68,5.76,5.43t5.11,4.7q2.15,2,2.51,2.26,2,1.77,2.73,2.37t1,.56c.18.05.3-.11.37-.49a21.64,21.64,0,0,0,.1-2.75l.1-26.78a8.39,8.39,0,0,1,.31-2.94,1.86,1.86,0,0,1,1.58-1.13,5.62,5.62,0,0,1,.75-.12l.48,0a.84.84,0,0,0,.42-.09.27.27,0,0,0,.15-.23c0-.13-.09-.22-.25-.26a2.65,2.65,0,0,0-.67-.06q-1.6,0-2.75.07l-1.6.07-2-.07q-1.52-.06-3.32-.07a3.26,3.26,0,0,0-.74.06c-.18,0-.28.13-.28.26a.31.31,0,0,0,.07.23.48.48,0,0,0,.34.09q.34,0,1.06,0a12.45,12.45,0,0,1,1.45.18,2,2,0,0,1,1.58,1.19,8.72,8.72,0,0,1,.42,3.15l.56,23.22q-1.37-1.28-4.86-4.71t-7.44-7.21Q75.74,39.07,71,34.55t-5.48-5.3l-.93-.9a1.82,1.82,0,0,0-.86-.56c-.2,0-.35.14-.44.47a8.25,8.25,0,0,0-.13,1.81l-.05,26.19a20.12,20.12,0,0,1-.29,4.34c-.21.85-.62,1.34-1.25,1.46a7.07,7.07,0,0,1-1.18.22c-.39,0-.7.05-.92.05s-.4.09-.41.27a.3.3,0,0,0,.22.3,1.89,1.89,0,0,0,.6.06q1.78,0,3.15-.07l1.77-.07,1.79.07q1.43.06,3.64.07A2.06,2.06,0,0,0,71,62.9a.29.29,0,0,0,.23-.28c0-.18-.14-.27-.41-.27s-.61,0-1.09-.05a11.14,11.14,0,0,1-1.47-.22,2,2,0,0,1-1.48-1.38,12.63,12.63,0,0,1-.52-3.92Z"/><path id="path12830-0-9-5-3-5-1-12-0-4-3-8-97" class="cls-2" d="M131.49,18.33c41.3,60.6,11.14,49.66-9.7,36.7L116.18,67.9a32.51,32.51,0,0,0,15.31,3.77c16.73,0,30.29-12.3,30.29-27.48s-13.56-25.86-30.29-25.86ZM121.79,55l2.08-5.28a.52.52,0,0,1,.51-.36h10.8a.53.53,0,0,1,.29.09.45.45,0,0,1,.13.19l4.69,11.23a1.19,1.19,0,0,1,.11.85.56.56,0,0,1-.37.36.83.83,0,0,0-.29.12.26.26,0,0,0-.08.22c0,.13.14.21.4.24s.64.05,1.12.07c1.8,0,3.45.09,5,.1s2.46,0,2.91,0a2.54,2.54,0,0,0,.72-.1c.19-.05.31-.13.32-.27a.26.26,0,0,0-.16-.24,1,1,0,0,0-.37,0,8.94,8.94,0,0,1-.91,0,6.46,6.46,0,0,1-1.09-.24,3.79,3.79,0,0,1-1.87-1.09c-4.12-6-6.41-13.1-9.2-19.69-1.26-3-2.35-5.52-3.28-7.72s-1.49-3.58-1.71-4.09a7.88,7.88,0,0,0-.67-1.33c-.15-.21-.29-.31-.43-.29s-.3.08-.45.31a10.7,10.7,0,0,0-.64,1.45l-9.84,24.36L121.79,55Zm-2.32-1.16c-10.71-6.5-18.31-14.37-18.31-9.68,0,9.2,5,17.36,12.67,22.35Zm10.08-19.26c.13,0,.27.17.4.51l4.75,12.31c0,.09.07.18.05.24s-.12.07-.24.07h-9.58c-.08,0-.15,0-.19,0a.32.32,0,0,1,0-.27l4.4-12.31c.13-.34.25-.51.37-.51h0Z"/></svg>