<?xml version="1.0" encoding="utf-8"?>
<!-- Generator: Adobe Illustrator 20.1.0, SVG Export Plug-In . SVG Version: 6.00 Build 0)  -->
<svg version="1.1" xmlns="http://www.w3.org/2000/svg" xmlns:xlink="http://www.w3.org/1999/xlink" x="0px" y="0px"
	 viewBox="0 0 1209.9 492" style="enable-background:new 0 0 1209.9 492;" xml:space="preserve">
<style type="text/css">
	.st0{clip-path:url(#SVGID_2_);fill:url(#SVGID_3_);}
	.st1{clip-path:url(#SVGID_2_);}
	.st2{fill:#9C1D21;}
</style>
<g id="Layer_1">
</g>
<g id="Layer_2">
	<defs>
		<rect id="SVGID_1_" x="-44.1" y="-18.8" width="1300.1" height="528.7"/>
	</defs>
	<clipPath id="SVGID_2_">
		<use xlink:href="#SVGID_1_"  style="overflow:visible;"/>
	</clipPath>
	<linearGradient id="SVGID_3_" gradientUnits="userSpaceOnUse" x1="891.3884" y1="747.9783" x2="315.7224" y2="-249.1045">
		<stop  offset="0" style="stop-color:#941C1F"/>
		<stop  offset="2.654927e-02" style="stop-color:#A31E22"/>
		<stop  offset="6.789424e-02" style="stop-color:#B51F25"/>
		<stop  offset="0.1167" style="stop-color:#C22027"/>
		<stop  offset="0.1794" style="stop-color:#CA2028"/>
		<stop  offset="0.3052" style="stop-color:#CD2028"/>
		<stop  offset="0.6887" style="stop-color:#B92026"/>
		<stop  offset="1" style="stop-color:#AF2024"/>
	</linearGradient>
	<rect x="-64" y="-29.9" class="st0" width="1335.1" height="558.6"/>
	<g id="Layer_3" class="st1">
		
			<path id="path12830-0-9-5-3-5-1-12-0-4-3-8-97_3_" inkscape:export-filename="E:\Documents and Settings\Ricco\Desktop\Analytica\as2.png" inkscape:export-xdpi="150" inkscape:export-ydpi="150" sodipodi:nodetypes="cccsscccccsccsssssssssssssccsssssscccccccccccsccscccccc" class="st2" d="
			M595.8-220.7c725.6,1064.8,195.8,872.6-170.4,644.9l-98.6,226.1c79,42.1,170.8,66.3,269,66.3c294.1,0,532.3-216.1,532.3-482.9
			C1128.1-33,889.8-220.7,595.8-220.7L595.8-220.7z M425.4,424.2l36.5-92.7c1.6-4.1,4.6-6.2,8.9-6.3h189.8c2.2,0,4,0.9,5.2,1.7
			c1.2,0.8,1.5,1.8,2.3,3.4l82.5,197.3c2.4,6.4,3.4,11.2,1.9,14.9c-1.6,3.6-3.7,5.6-6.6,6.4c-1.8,0.4-4,1.2-5.2,2.1
			c-1.1,0.9-1.4,2.3-1.4,3.8c0.1,2.3,2.4,3.7,7,4.3c4.6,0.5,11.2,1,19.7,1.2c31.6,0.8,60.6,1.5,87.2,1.7c26.6,0.2,43.3,0,51.1,0
			c5,0,9.3-0.7,12.6-1.7c3.3-1,5.5-2.3,5.6-4.7c0-2-1.2-3.6-2.8-4.2c-1.6-0.7-3.9-0.5-6.6-0.5c-4.5,0-9.8-0.2-15.9-0.8
			c-6.2-0.7-12.5-2.3-19.2-4.2c-9.3-1.4-20.1-7.4-32.8-19.1c-72.5-105.4-112.6-230.1-161.7-346c-22.1-52.3-41.4-97-57.6-135.6
			c-16.3-38.6-26.1-62.9-30-71.9c-5.1-12.1-9-19.6-11.7-23.4c-2.7-3.8-5-5.5-7.5-5.1c-2.5-0.3-5.3,1.4-8,5.5s-6.1,12.6-11.2,25.5
			l-172.9,428C398,410.5,411.8,417.3,425.4,424.2L425.4,424.2L425.4,424.2L425.4,424.2z M384.6,403.8
			C196.5,289.6,62.9,151.3,62.9,233.8c0,161.7,88.1,305.1,222.6,392.8L384.6,403.8z M561.7,65.4c2.2,0,4.8,2.9,7,8.9l83.4,216.4
			c0.5,1.6,1.3,3.2,0.9,4.2c-0.4,1-2.1,1.2-4.2,1.3H480.7c-1.4,0-2.7,0-3.3-0.9c-0.6-0.9-0.4-2.7,0.5-4.7l77.3-216.4
			C557.4,68.3,559.5,65.4,561.7,65.4L561.7,65.4L561.7,65.4L561.7,65.4z"/>
	</g>
</g>
</svg>
