<svg id="Layer_1" data-name="Layer 1" xmlns="http://www.w3.org/2000/svg" xmlns:xlink="http://www.w3.org/1999/xlink" viewBox="0 0 720 235.48"><defs><style>.cls-1{fill:#151515;}.cls-2{fill:url(#radial-gradient);}.cls-3{fill:#fff;}</style><radialGradient id="radial-gradient" cx="261.34" cy="70.7" r="58.04" gradientUnits="userSpaceOnUse"><stop offset="0" stop-color="#d71f27"/><stop offset="1" stop-color="#951b1e"/></radialGradient></defs><title>Analytica_Logo_Artboard 1 copy 6_Vector</title><path id="path3383-2-6-1-1-1-5" class="cls-1" d="M341.92,63.14q0-10.63,0-14.55t.18-5.79a7.27,7.27,0,0,1,1-3.74,4.28,4.28,0,0,1,3.09-1.62q1-.14,1.91-.21t1.52-.07a1.13,1.13,0,0,0,.57-.14.48.48,0,0,0,.26-.42.59.59,0,0,0-.4-.59,3.41,3.41,0,0,0-1.26-.16q-2.71,0-6.6.14l-4.65.14L333.22,36q-3.68-.12-7.45-.14a3.39,3.39,0,0,0-1.26.16.59.59,0,0,0-.4.59.48.48,0,0,0,.26.42,1.14,1.14,0,0,0,.57.14q.76,0,1.81.07a13.3,13.3,0,0,1,1.73.21,5.33,5.33,0,0,1,3.45,1.73,6.49,6.49,0,0,1,1,3.63q.15,1.87.18,5.79t0,14.55V79.71q0,6.84-.06,12.13a81.9,81.9,0,0,1-.46,8.31,12.59,12.59,0,0,1-.88,3.47,2.85,2.85,0,0,1-2.14,1.71c-.48.1-1,.18-1.56.26a11.56,11.56,0,0,1-1.56.12,1,1,0,0,0-.65.18.48.48,0,0,0-.18.39.59.59,0,0,0,.4.58,3.25,3.25,0,0,0,1.26.17c.8,0,1.72,0,2.77-.06l3.17-.13q1.59,0,2.76,0l1.51,0q2.24,0,4.8.07t5.82.21l7.47.18q4.22.09,9.82.11a15.05,15.05,0,0,0,5.08-.46,2.79,2.79,0,0,0,1.48-2.08,42.26,42.26,0,0,0,1.09-5.34q.45-3.06.47-4.07a3.25,3.25,0,0,0-.12-1.09.49.49,0,0,0-.51-.32.74.74,0,0,0-.66.34,2.21,2.21,0,0,0-.27.89,11.83,11.83,0,0,1-1,2.93,11.39,11.39,0,0,1-1.74,2.72,8.68,8.68,0,0,1-5.17,2.44,46.39,46.39,0,0,1-7.43.39,50.69,50.69,0,0,1-8.67-.52,7.33,7.33,0,0,1-3.83-1.65q-1.37-1.16-1.85-6.23t-.44-15.34Z"/><path id="path3385-6-1-7-3-2-3" class="cls-1" d="M397.94,91c0,.81,0,2.07,0,3.81s-.12,3.61-.26,5.65a8.71,8.71,0,0,1-.86,3.49,3.12,3.12,0,0,1-2.19,1.72c-.45.09-.95.18-1.47.26a11.16,11.16,0,0,1-1.48.12.91.91,0,0,0-.61.18.49.49,0,0,0-.17.39.58.58,0,0,0,.38.59,3,3,0,0,0,1.19.17q2.49,0,5.74-.14l3.9-.14,4.2.14q3.63.12,7.89.14c1.07,0,1.59-.27,1.57-.76a.5.5,0,0,0-.17-.39.9.9,0,0,0-.62-.18c-.49,0-1.16,0-2-.12s-1.66-.16-2.4-.26a4,4,0,0,1-3-1.72,7.1,7.1,0,0,1-1-3.49c-.14-2-.23-3.92-.26-5.65s0-3,0-3.81V82.82a38.36,38.36,0,0,1,.18-4.62,17,17,0,0,1,1.29-4.83q1.09-2.37,4.94-8.76t7.92-12.73q4.09-6.34,5.92-8.57a37.12,37.12,0,0,1,2.68-2.94,12.7,12.7,0,0,1,2.53-1.88,9.58,9.58,0,0,1,2.44-1,8.48,8.48,0,0,1,2.08-.31,1.87,1.87,0,0,0,.94-.2.63.63,0,0,0,.34-.56q0-.28-.38-.42a2.5,2.5,0,0,0-.9-.14q-1.77,0-5.25.14l-4.29.14q-.68,0-2.58-.14t-3.91-.14A3.69,3.69,0,0,0,419,36c-.27.1-.42.24-.42.42a.63.63,0,0,0,.4.55,6.79,6.79,0,0,0,1.07.4,1.8,1.8,0,0,1,1.23.93,3.66,3.66,0,0,1,.35,1.72,6.87,6.87,0,0,1-.36,2.13,11.5,11.5,0,0,1-1.32,2.7q-1.18,1.88-4.69,7.71t-7,11.81q-3.49,6-4.62,8.28-1.12-1.77-5.13-8.35t-8-13.17q-4-6.58-5-8.35a14.28,14.28,0,0,1-.93-1.95,5,5,0,0,1-.35-1.74,1.58,1.58,0,0,1,.35-1,2.61,2.61,0,0,1,.93-.71l1.07-.42c.27-.11.4-.25.41-.43a.52.52,0,0,0-.24-.47,2,2,0,0,0-1-.19c-2,0-3.75.06-5.31.14l-3,.14L373.13,36q-3.6-.12-5.38-.14a2,2,0,0,0-1,.19.54.54,0,0,0-.31.47.57.57,0,0,0,.31.51,1.38,1.38,0,0,0,.68.15,6.56,6.56,0,0,1,1.89.4,11,11,0,0,1,2.34,1.11,18.49,18.49,0,0,1,3.08,2.61,35.18,35.18,0,0,1,3.6,4.38q1.94,2.78,5.87,8.91t7.41,11.68q3.47,5.56,4,6.64A24.51,24.51,0,0,1,397.28,77a22.1,22.1,0,0,1,.65,5.85Z"/><path id="path3387-0-54-1-8-0-9" class="cls-1" d="M478.77,40.78l12.44.19q7,.18,9.52,1.59t2.63,3.55l.1,1a3.71,3.71,0,0,0,.24,1.28.54.54,0,0,0,.55.3.57.57,0,0,0,.5-.29,1.79,1.79,0,0,0,.19-.92q0-1.05.15-4.47t.15-5.81a3,3,0,0,0-.07-.77.42.42,0,0,0-.43-.35,6.41,6.41,0,0,0-1,.16c-.46.1-1.05.2-1.79.3a27.24,27.24,0,0,1-2.91.34c-1.16.08-2.53.13-4.1.13h-37c-.66,0-1.75,0-3.27-.13s-3-.2-4.53-.34a9.64,9.64,0,0,1-2.91-.63,5.42,5.42,0,0,0-1.43-.49c-.2,0-.39.26-.57.68s-.31.78-.42,1.1q-.26,1-1.16,4.79t-1,4.93c0,.56.18.84.49.84a.74.74,0,0,0,.53-.19,1.88,1.88,0,0,0,.46-.75c.14-.31.31-.67.54-1.1s.61-1,1.14-1.8a5.72,5.72,0,0,1,3.33-2.3,26.66,26.66,0,0,1,6.74-.69l14.61-.19V80.32q0,6.78-.06,12c-.05,3.5-.2,6.25-.43,8.25a13,13,0,0,1-.84,3.44,2.72,2.72,0,0,1-2,1.7c-.46.09-.95.18-1.48.25a10.33,10.33,0,0,1-1.48.12,1,1,0,0,0-.62.17.49.49,0,0,0-.17.39.59.59,0,0,0,.38.58,3.21,3.21,0,0,0,1.19.16q2.51,0,5.77-.14l3.91-.14,4.22.14q3.65.12,7.92.14c1.07,0,1.6-.27,1.58-.75a.49.49,0,0,0-.17-.39.92.92,0,0,0-.62-.17c-.49,0-1.17,0-2-.12s-1.67-.16-2.41-.25a3.69,3.69,0,0,1-2.93-1.7,8.33,8.33,0,0,1-.93-3.44c-.23-2-.38-4.75-.43-8.25s-.08-7.51-.06-12Z"/><path id="path3389-1-20-1-7-1-2" class="cls-1" d="M530.22,63.31q0-10.6,0-14.51t.17-5.77a7.84,7.84,0,0,1,.9-3.73,3.73,3.73,0,0,1,2.74-1.62l1.41-.21a8.29,8.29,0,0,1,1-.07,1,1,0,0,0,.54-.14.49.49,0,0,0,.25-.42.59.59,0,0,0-.38-.59,3.05,3.05,0,0,0-1.19-.16q-2.49,0-5.73.14l-3.89.14-3.93-.14q-3.29-.12-6-.14a3,3,0,0,0-1.19.16.59.59,0,0,0-.38.59.49.49,0,0,0,.25.42,1,1,0,0,0,.54.14,13.24,13.24,0,0,1,1.37.08,12.09,12.09,0,0,1,1.67.29,3.57,3.57,0,0,1,2.41,1.61,7.79,7.79,0,0,1,.93,3.65q.14,1.87.17,5.77t0,14.51V79.84q0,6.82-.06,12.09t-.43,8.28a13,13,0,0,1-.84,3.47,2.7,2.7,0,0,1-2,1.7c-.46.1-1,.18-1.48.26a11.87,11.87,0,0,1-1.47.12.93.93,0,0,0-.62.18.49.49,0,0,0-.17.39.6.6,0,0,0,.39.59,3.05,3.05,0,0,0,1.18.16q2.49,0,5.73-.14l3.89-.14,4.2.14q3.63.12,7.88.14c1.07,0,1.59-.27,1.57-.75a.49.49,0,0,0-.17-.39.92.92,0,0,0-.61-.18c-.48,0-1.16,0-2-.12s-1.66-.16-2.4-.26a3.67,3.67,0,0,1-2.91-1.7,8.54,8.54,0,0,1-.92-3.47q-.35-3-.43-8.28t-.06-12.09Z"/><path id="path3391-6-9-5-4-6-4" class="cls-1" d="M585.35,108.91a86.68,86.68,0,0,0,9.63-.52,34,34,0,0,0,7.88-1.65,5,5,0,0,0,1.7-1,4.58,4.58,0,0,0,.82-1.76,63.78,63.78,0,0,0,1.44-7q.66-4.2.7-5.08a2.58,2.58,0,0,0-.16-1,.57.57,0,0,0-.52-.42.68.68,0,0,0-.63.32,3.14,3.14,0,0,0-.34,1.1,20.82,20.82,0,0,1-1.15,3.82,12.83,12.83,0,0,1-2.46,4.1,14.93,14.93,0,0,1-7.18,3.8,41.44,41.44,0,0,1-9.74.91,35.53,35.53,0,0,1-18.36-5,34.59,34.59,0,0,1-16.76-29.57A44.68,44.68,0,0,1,552,56.61a25.23,25.23,0,0,1,7-11.18,22,22,0,0,1,7.61-4.65q5.2-2.11,14.76-2.24A42,42,0,0,1,593,40.17a22.53,22.53,0,0,1,7.79,3.75,10.86,10.86,0,0,1,3,4.21,14.23,14.23,0,0,1,1.09,5.41A5,5,0,0,0,605,55a.62.62,0,0,0,.65.49.63.63,0,0,0,.62-.46,5.14,5.14,0,0,0,.26-1.52c0-.83.08-2.23.11-4.22s.09-3.82.19-5.49.21-2.87.32-3.63.16-1.31.17-1.65a.9.9,0,0,0-.23-.69,1.66,1.66,0,0,0-1-.34q-2.31-.15-4.74-.53t-5.18-.88a73,73,0,0,0-7.38-.88Q585,35,582,35q-11.14.1-18.26,2.92a32.6,32.6,0,0,0-11.41,7.17,35.55,35.55,0,0,0-8.69,13.65,37,37,0,0,0-2.2,12.1A41.52,41.52,0,0,0,543.83,85a32.82,32.82,0,0,0,9.42,13.68,38,38,0,0,0,13.46,7.6,59.83,59.83,0,0,0,18.64,2.58Z"/><path id="path3393-5-7-2-2-4-61" class="cls-1" d="M623.12,97.1a20.44,20.44,0,0,1-3.26,5.89,8.17,8.17,0,0,1-5.44,2.83c-.44,0-1,.09-1.54.13s-1.07.05-1.46.06a1.38,1.38,0,0,0-.67.14.46.46,0,0,0-.27.42.6.6,0,0,0,.48.58,4.77,4.77,0,0,0,1.49.16q3.82,0,7.24-.14c2.29-.08,3.77-.13,4.46-.14s1.86.06,3.53.14,3.18.13,4.54.14a3,3,0,0,0,1.13-.16.61.61,0,0,0,.43-.58c0-.38-.33-.56-1-.56h-1a5.48,5.48,0,0,1-2.63-.65,2.33,2.33,0,0,1-1.31-2,13.08,13.08,0,0,1,.37-2.87,23.46,23.46,0,0,1,1.08-3.35l6.21-16.43a1.07,1.07,0,0,1,1-.74h22.26a1.06,1.06,0,0,1,.58.14,1.17,1.17,0,0,1,.35.42l9.63,22.83a2.38,2.38,0,0,1,.15,1.74,1.22,1.22,0,0,1-.78.77,1.28,1.28,0,0,0-.52.22.51.51,0,0,0-.21.43c0,.26.28.43.81.5s1.3.12,2.29.15q5.56.14,10.22.16l6,0a5.26,5.26,0,0,0,1.47-.16c.39-.11.59-.31.61-.58a.45.45,0,0,0-.28-.45,1.93,1.93,0,0,0-.75-.11,15.48,15.48,0,0,1-1.88-.11,12.89,12.89,0,0,1-2.27-.45,8.05,8.05,0,0,1-3.87-2.26q-2.24-2-5-8-2.47-5.52-6.22-14.2t-7.63-17.75L654.7,47.43q-2.86-6.69-3.53-8.25a17,17,0,0,0-1.37-2.75c-.32-.44-.62-.63-.91-.59s-.59.18-.91.66a20,20,0,0,0-1.37,3Zm14.5-20.51a.4.4,0,0,1-.35-.15c-.07-.1-.06-.27,0-.5l9.11-25.06c.52-1.39,1-1.39,1.55,0l9.83,25.06a.74.74,0,0,1,0,.46c0,.12-.19.18-.44.19Z"/><path id="path3396-5-2-6-7-6-1" class="cls-1" d="M43.34,97.1A20.36,20.36,0,0,1,40.06,103a8.25,8.25,0,0,1-5.47,2.83c-.45,0-1,.09-1.55.12S32,106,31.57,106a1.37,1.37,0,0,0-.66.14.46.46,0,0,0-.27.41.59.59,0,0,0,.48.58,4.67,4.67,0,0,0,1.5.17q3.84,0,7.29-.14t4.48-.14c.68,0,1.87.06,3.55.14s3.21.13,4.57.14a3,3,0,0,0,1.13-.17.6.6,0,0,0,.43-.58c0-.37-.33-.55-1-.55H52a5.53,5.53,0,0,1-2.64-.65,2.33,2.33,0,0,1-1.31-2,12.91,12.91,0,0,1,.38-2.86,23.34,23.34,0,0,1,1.08-3.35l6.25-16.43a1.07,1.07,0,0,1,1-.74H79.17a1,1,0,0,1,.58.13,1.12,1.12,0,0,1,.35.42l9.69,22.83a2.36,2.36,0,0,1,.16,1.74,1.22,1.22,0,0,1-.78.77,1.28,1.28,0,0,0-.52.22.52.52,0,0,0-.21.43c0,.26.28.43.82.5s1.31.12,2.3.15q5.59.14,10.29.16l6.07,0a5.14,5.14,0,0,0,1.47-.17c.39-.11.6-.3.61-.58a.44.44,0,0,0-.29-.45A1.87,1.87,0,0,0,109,106a16.71,16.71,0,0,1-1.89-.11,13.47,13.47,0,0,1-2.28-.45,8.11,8.11,0,0,1-3.89-2.26q-2.25-2-5.06-8Q93.36,89.64,89.59,81T81.91,63.19L75.13,47.43q-2.87-6.7-3.56-8.25a16.75,16.75,0,0,0-1.38-2.75q-.47-.65-.91-.59c-.29,0-.59.18-.91.66a20.15,20.15,0,0,0-1.38,3ZM57.92,76.59a.39.39,0,0,1-.35-.15c-.07-.1-.06-.27,0-.5l9.17-25.06q.78-2.09,1.56,0l9.9,25.06a.74.74,0,0,1,0,.46c0,.12-.19.18-.44.19Z"/><path id="path3398-4-6-1-9-1-1" class="cls-1" d="M127.35,50.11q2.75,2.77,10.31,10.23t16.87,16.44q5.69,5.45,11.7,11t10.38,9.56q4.37,4,5.1,4.59,4,3.6,5.56,4.81t2,1.13c.36.11.6-.23.74-1a44,44,0,0,0,.19-5.6l.21-54.45a17.06,17.06,0,0,1,.64-6,3.79,3.79,0,0,1,3.22-2.29,11.43,11.43,0,0,1,1.52-.24,9.14,9.14,0,0,1,1,0,1.7,1.7,0,0,0,.84-.19.54.54,0,0,0,.3-.46c0-.27-.18-.45-.51-.53a5.38,5.38,0,0,0-1.37-.12q-3.25,0-5.6.14t-3.25.14q-1,0-4.09-.14T176.41,37a6.63,6.63,0,0,0-1.51.12c-.37.08-.56.26-.57.53a.62.62,0,0,0,.14.46,1,1,0,0,0,.69.19q.69,0,2.16.09a25.31,25.31,0,0,1,2.94.37,4.11,4.11,0,0,1,3.2,2.43,17.73,17.73,0,0,1,.86,6.4l1.15,47.2q-2.78-2.61-9.88-9.58T160.47,70.55q-12.45-11.91-22-21.09T127.35,38.68l-1.9-1.84a3.69,3.69,0,0,0-1.75-1.13c-.41,0-.71.28-.89,1a16.77,16.77,0,0,0-.26,3.69l-.1,53.25a40.9,40.9,0,0,1-.58,8.82c-.42,1.73-1.27,2.73-2.54,3a14.38,14.38,0,0,1-2.41.45c-.8.07-1.42.11-1.86.11s-.82.18-.83.55a.6.6,0,0,0,.44.62,3.84,3.84,0,0,0,1.22.13q3.61,0,6.41-.14t3.59-.14l3.64.14q2.9.12,7.4.14a4.19,4.19,0,0,0,1.41-.17.6.6,0,0,0,.47-.58c0-.37-.29-.55-.83-.55s-1.24,0-2.21-.11a22.66,22.66,0,0,1-3-.45,4.15,4.15,0,0,1-3-2.81,25.68,25.68,0,0,1-1.06-8Z"/><path id="path12830-0-9-5-3-5-1-12-0-4-3-8-97" class="cls-2" d="M261.37,16.48c84,123.2,22.65,101-19.72,74.61l-11.41,26.16a66.09,66.09,0,0,0,31.12,7.67c34,0,61.59-25,61.59-55.87S295.4,16.48,261.37,16.48ZM241.66,91.09l4.23-10.73a1.06,1.06,0,0,1,1-.73h22a1.08,1.08,0,0,1,.6.19.9.9,0,0,1,.27.39L279.29,103a2.43,2.43,0,0,1,.22,1.72,1.15,1.15,0,0,1-.76.74,1.68,1.68,0,0,0-.6.25.54.54,0,0,0-.16.44c0,.26.28.43.81.5s1.3.11,2.28.14c3.66.09,7,.18,10.08.2s5,0,5.91,0a5.16,5.16,0,0,0,1.46-.2c.39-.11.64-.26.65-.54a.54.54,0,0,0-.32-.49,2.12,2.12,0,0,0-.76-.05,18.18,18.18,0,0,1-1.84-.1,13.13,13.13,0,0,1-2.22-.49,7.71,7.71,0,0,1-3.8-2.21c-8.39-12.19-13-26.63-18.71-40-2.56-6-4.79-11.23-6.67-15.69s-3-7.28-3.47-8.31A16,16,0,0,0,260,36.2c-.31-.44-.58-.63-.87-.59s-.61.16-.92.64a21.76,21.76,0,0,0-1.3,3l-20,49.53,4.72,2.36Zm-4.72-2.36c-21.76-13.21-37.22-29.21-37.22-19.67,0,18.71,10.19,35.3,25.75,45.45Zm20.5-39.15c.26,0,.56.34.81,1l9.65,25c.06.19.15.37.11.49s-.24.14-.49.15H248.06c-.16,0-.31,0-.38-.1a.65.65,0,0,1,.05-.54l8.95-25c.26-.7.5-1,.76-1h0Z"/><rect class="cls-1" x="360" y="144.5" width="360" height="90"/><path id="path3383-2-6-1-1-1-5-2" data-name="path3383-2-6-1-1-1-5" class="cls-3" d="M531.11,185.78q0-5.23,0-7.16t.09-2.85a3.58,3.58,0,0,1,.48-1.84,2.11,2.11,0,0,1,1.52-.8q.48-.07.94-.1l.75,0a.55.55,0,0,0,.28-.07.24.24,0,0,0,.13-.21.29.29,0,0,0-.2-.29,1.68,1.68,0,0,0-.62-.08q-1.33,0-3.25.07l-2.29.07-2.13-.07q-1.81-.06-3.66-.07a1.67,1.67,0,0,0-.62.08.29.29,0,0,0-.2.29.24.24,0,0,0,.13.21.56.56,0,0,0,.28.07l.89,0a6.54,6.54,0,0,1,.85.1,2.62,2.62,0,0,1,1.7.85,3.19,3.19,0,0,1,.51,1.79q.07.92.09,2.85t0,7.16v8.15q0,3.36,0,6a40.28,40.28,0,0,1-.22,4.09,6.19,6.19,0,0,1-.44,1.71,1.4,1.4,0,0,1-1.05.84c-.24,0-.49.09-.77.13a5.69,5.69,0,0,1-.77.06.5.5,0,0,0-.32.09.24.24,0,0,0-.09.19.29.29,0,0,0,.2.29,1.6,1.6,0,0,0,.62.08l1.36,0,1.56-.07,1.36,0,.74,0q1.1,0,2.36,0l2.86.1,3.68.09q2.08,0,4.83.05a7.4,7.4,0,0,0,2.5-.23,1.37,1.37,0,0,0,.73-1,20.79,20.79,0,0,0,.54-2.63q.22-1.51.23-2a1.6,1.6,0,0,0-.06-.54.24.24,0,0,0-.25-.16.36.36,0,0,0-.33.17,1.09,1.09,0,0,0-.13.44,5.82,5.82,0,0,1-.47,1.44,5.6,5.6,0,0,1-.86,1.34,4.27,4.27,0,0,1-2.54,1.2,22.82,22.82,0,0,1-3.66.19,24.93,24.93,0,0,1-4.26-.26,3.61,3.61,0,0,1-1.88-.81q-.68-.57-.91-3.06t-.22-7.54Z"/><path id="path3385-6-1-7-3-2-3-2" data-name="path3385-6-1-7-3-2-3" class="cls-3" d="M558.66,199.46c0,.4,0,1,0,1.87s-.06,1.78-.13,2.78a4.29,4.29,0,0,1-.42,1.71,1.53,1.53,0,0,1-1.08.85l-.72.13a5.49,5.49,0,0,1-.73.06.45.45,0,0,0-.3.09.24.24,0,0,0-.08.19.29.29,0,0,0,.19.29,1.47,1.47,0,0,0,.59.08q1.23,0,2.82-.07l1.92-.07,2.07.07q1.79.06,3.88.07c.52,0,.78-.13.77-.37a.24.24,0,0,0-.08-.19.44.44,0,0,0-.3-.09c-.24,0-.57,0-1-.06l-1.18-.13a2,2,0,0,1-1.5-.85,3.49,3.49,0,0,1-.48-1.71c-.07-1-.11-1.93-.13-2.78s0-1.48,0-1.87v-4a18.87,18.87,0,0,1,.09-2.27,8.35,8.35,0,0,1,.63-2.38q.54-1.17,2.43-4.31t3.9-6.26q2-3.12,2.91-4.22a18.26,18.26,0,0,1,1.32-1.45,6.25,6.25,0,0,1,1.25-.92,4.71,4.71,0,0,1,1.2-.5,4.17,4.17,0,0,1,1-.15.92.92,0,0,0,.46-.1.31.31,0,0,0,.17-.27q0-.14-.19-.21a1.23,1.23,0,0,0-.44-.07l-2.58.07-2.11.07-1.27-.07q-.93-.06-1.92-.07a1.81,1.81,0,0,0-.57.07c-.14,0-.2.12-.21.21a.31.31,0,0,0,.2.27,3.34,3.34,0,0,0,.53.2.88.88,0,0,1,.6.46,1.8,1.8,0,0,1,.17.84,3.38,3.38,0,0,1-.17,1,5.66,5.66,0,0,1-.65,1.33q-.58.92-2.31,3.79t-3.45,5.81q-1.72,2.94-2.27,4.07-.55-.87-2.52-4.11T555,179.85q-2-3.24-2.46-4.11a7,7,0,0,1-.46-1,2.45,2.45,0,0,1-.17-.85.78.78,0,0,1,.17-.49,1.29,1.29,0,0,1,.46-.35l.53-.21c.13-.05.2-.12.2-.21a.25.25,0,0,0-.12-.23,1,1,0,0,0-.51-.09c-1,0-1.85,0-2.61.07l-1.45.07-2.14-.07-2.65-.07a1,1,0,0,0-.48.09.27.27,0,0,0-.15.23.28.28,0,0,0,.15.25.68.68,0,0,0,.33.08,3.23,3.23,0,0,1,.93.2,5.41,5.41,0,0,1,1.15.55,9.09,9.09,0,0,1,1.52,1.28,17.3,17.3,0,0,1,1.77,2.16q1,1.37,2.89,4.38t3.65,5.75q1.71,2.73,2,3.27a12.06,12.06,0,0,1,.79,2,10.87,10.87,0,0,1,.32,2.88Z"/><path id="path3387-0-54-1-8-0-9-2" data-name="path3387-0-54-1-8-0-9" class="cls-3" d="M598.42,174.78l6.12.09a11.45,11.45,0,0,1,4.68.78,2.1,2.1,0,0,1,1.29,1.75l0,.51a1.83,1.83,0,0,0,.12.63.27.27,0,0,0,.27.15.28.28,0,0,0,.24-.14.88.88,0,0,0,.1-.45q0-.52.07-2.2t.07-2.86a1.45,1.45,0,0,0,0-.38.21.21,0,0,0-.21-.17,3.15,3.15,0,0,0-.48.08c-.22,0-.52.1-.88.15a13.4,13.4,0,0,1-1.43.17c-.57,0-1.24.06-2,.06H588.17c-.32,0-.86,0-1.61-.06s-1.49-.1-2.23-.17a4.74,4.74,0,0,1-1.43-.31,2.66,2.66,0,0,0-.7-.24c-.1,0-.19.13-.28.33s-.15.38-.21.54q-.13.5-.57,2.36t-.5,2.42c0,.28.09.41.24.41a.36.36,0,0,0,.26-.09.92.92,0,0,0,.22-.37c.07-.15.15-.33.27-.54s.3-.5.56-.89a2.82,2.82,0,0,1,1.64-1.13,13.11,13.11,0,0,1,3.32-.34l7.19-.09v19.45q0,3.34,0,5.92c0,1.72-.1,3.07-.21,4.06a6.37,6.37,0,0,1-.41,1.69,1.34,1.34,0,0,1-1,.84l-.73.12a5.08,5.08,0,0,1-.73.06.47.47,0,0,0-.3.09.24.24,0,0,0-.09.19.29.29,0,0,0,.19.29,1.58,1.58,0,0,0,.59.08q1.23,0,2.84-.07l1.92-.07,2.08.07q1.79.06,3.9.07c.53,0,.79-.13.78-.37A.24.24,0,0,0,603,207a.45.45,0,0,0-.3-.09c-.24,0-.57,0-1-.06l-1.18-.12a1.81,1.81,0,0,1-1.44-.84,4.1,4.1,0,0,1-.46-1.69c-.12-1-.19-2.34-.21-4.06s0-3.69,0-5.92Z"/><path id="path3389-1-20-1-7-1-2-2" data-name="path3389-1-20-1-7-1-2" class="cls-3" d="M623.72,185.86q0-5.21,0-7.14t.09-2.84a3.86,3.86,0,0,1,.44-1.84,1.83,1.83,0,0,1,1.35-.8l.69-.1a4.08,4.08,0,0,1,.52,0,.5.5,0,0,0,.27-.07.24.24,0,0,0,.12-.21.29.29,0,0,0-.19-.29,1.5,1.5,0,0,0-.59-.08q-1.22,0-2.82.07l-1.91.07-1.93-.07q-1.62-.06-2.95-.07a1.49,1.49,0,0,0-.59.08.29.29,0,0,0-.19.29.24.24,0,0,0,.12.21.5.5,0,0,0,.27.07,6.51,6.51,0,0,1,.68,0,6,6,0,0,1,.82.14,1.76,1.76,0,0,1,1.18.79,3.83,3.83,0,0,1,.46,1.79q.07.92.09,2.84t0,7.14V194q0,3.35,0,5.95t-.21,4.07a6.38,6.38,0,0,1-.41,1.7,1.33,1.33,0,0,1-1,.84l-.73.13a5.84,5.84,0,0,1-.72.06.46.46,0,0,0-.3.09.24.24,0,0,0-.08.19.29.29,0,0,0,.19.29,1.5,1.5,0,0,0,.58.08q1.23,0,2.82-.07l1.91-.07,2.06.07q1.78.06,3.88.07c.52,0,.78-.13.77-.37a.24.24,0,0,0-.09-.19.45.45,0,0,0-.3-.09c-.24,0-.57,0-1-.06l-1.18-.13a1.81,1.81,0,0,1-1.43-.84A4.2,4.2,0,0,1,624,204q-.17-1.48-.21-4.07t0-5.95Z"/><path id="path3391-6-9-5-4-6-4-2" data-name="path3391-6-9-5-4-6-4" class="cls-3" d="M650.84,208.29a42.63,42.63,0,0,0,4.74-.25,16.7,16.7,0,0,0,3.88-.81,2.44,2.44,0,0,0,.84-.48,2.25,2.25,0,0,0,.41-.87,31.37,31.37,0,0,0,.71-3.44q.32-2.06.35-2.5a1.27,1.27,0,0,0-.08-.49.28.28,0,0,0-.26-.21.33.33,0,0,0-.31.16,1.54,1.54,0,0,0-.17.54,10.24,10.24,0,0,1-.56,1.88,6.31,6.31,0,0,1-1.21,2,7.34,7.34,0,0,1-3.53,1.87,20.38,20.38,0,0,1-4.79.45,17.48,17.48,0,0,1-9-2.44,17,17,0,0,1-8.24-14.55,22,22,0,0,1,.84-6.61,12.41,12.41,0,0,1,3.46-5.5,10.79,10.79,0,0,1,3.74-2.29,22.79,22.79,0,0,1,13-.3,11.08,11.08,0,0,1,3.83,1.84,5.34,5.34,0,0,1,1.47,2.07,7,7,0,0,1,.54,2.66,2.48,2.48,0,0,0,.07.73.3.3,0,0,0,.32.24.31.31,0,0,0,.3-.23,2.53,2.53,0,0,0,.13-.75c0-.41,0-1.1.05-2.08s0-1.88.09-2.7.1-1.41.16-1.79.08-.64.08-.81a.44.44,0,0,0-.11-.34.82.82,0,0,0-.51-.17q-1.14-.07-2.33-.26t-2.55-.44a35.93,35.93,0,0,0-3.63-.44q-1.84-.13-3.31-.12a25.29,25.29,0,0,0-9,1.44,16,16,0,0,0-5.61,3.53,17.49,17.49,0,0,0-4.28,6.71,18.21,18.21,0,0,0-1.08,5.95,20.42,20.42,0,0,0,1.15,7,16.15,16.15,0,0,0,4.64,6.73,18.71,18.71,0,0,0,6.62,3.74,29.43,29.43,0,0,0,9.17,1.27Z"/><path id="path3393-5-7-2-2-4-61-2" data-name="path3393-5-7-2-2-4-61" class="cls-3" d="M669.41,202.48a10.05,10.05,0,0,1-1.6,2.9,4,4,0,0,1-2.67,1.39l-.76.06-.72,0a.68.68,0,0,0-.33.07.23.23,0,0,0-.13.21.29.29,0,0,0,.24.28,2.35,2.35,0,0,0,.73.08q1.88,0,3.56-.07l2.19-.07,1.74.07c.82,0,1.57.06,2.23.07a1.5,1.5,0,0,0,.56-.08.3.3,0,0,0,.21-.28c0-.18-.16-.27-.51-.27h-.51a2.69,2.69,0,0,1-1.29-.32,1.15,1.15,0,0,1-.64-1,6.43,6.43,0,0,1,.18-1.41,11.54,11.54,0,0,1,.53-1.65l3.05-8.08A.53.53,0,0,1,676,194h10.95a.52.52,0,0,1,.29.07.57.57,0,0,1,.17.21l4.73,11.23a1.17,1.17,0,0,1,.08.85.6.6,0,0,1-.38.38.63.63,0,0,0-.25.11.25.25,0,0,0-.1.21c0,.13.14.21.4.25s.64.06,1.13.07q2.73.07,5,.08h3a2.59,2.59,0,0,0,.72-.08c.19-.05.29-.15.3-.28a.22.22,0,0,0-.14-.22,1,1,0,0,0-.37-.05,7.62,7.62,0,0,1-.92-.05,6.34,6.34,0,0,1-1.12-.22,4,4,0,0,1-1.9-1.11,13.06,13.06,0,0,1-2.48-4q-1.21-2.72-3.06-7t-3.75-8.73L685,178.05,683.21,174a8.34,8.34,0,0,0-.68-1.35c-.16-.21-.3-.31-.45-.29s-.29.09-.45.33a9.84,9.84,0,0,0-.67,1.46Zm7.13-10.09a.19.19,0,0,1-.17-.07c0-.05,0-.13,0-.25l4.48-12.33c.26-.69.51-.69.76,0l4.84,12.33a.36.36,0,0,1,0,.23c0,.06-.09.09-.22.09Z"/><path id="path3396-5-2-6-7-6-1-2" data-name="path3396-5-2-6-7-6-1" class="cls-3" d="M384.25,202.49a10,10,0,0,1-1.61,2.9,4.06,4.06,0,0,1-2.69,1.39l-.76.06-.72,0a.67.67,0,0,0-.33.07.23.23,0,0,0-.13.2.29.29,0,0,0,.24.28,2.3,2.3,0,0,0,.74.08q1.89,0,3.59-.07l2.2-.07,1.75.07q1.24.06,2.25.07a1.45,1.45,0,0,0,.56-.08.29.29,0,0,0,.21-.28c0-.18-.16-.27-.51-.27h-.51a2.72,2.72,0,0,1-1.3-.32,1.15,1.15,0,0,1-.65-1,6.35,6.35,0,0,1,.19-1.41,11.48,11.48,0,0,1,.53-1.65l3.07-8.08a.53.53,0,0,1,.51-.36h11a.51.51,0,0,1,.29.07.55.55,0,0,1,.17.21l4.76,11.23a1.16,1.16,0,0,1,.08.86.6.6,0,0,1-.38.38.63.63,0,0,0-.26.11.26.26,0,0,0-.1.21c0,.13.14.21.4.25s.64.06,1.13.07q2.75.07,5.06.08h3a2.53,2.53,0,0,0,.72-.08c.19-.05.29-.15.3-.28a.22.22,0,0,0-.14-.22.92.92,0,0,0-.37-.05,8.22,8.22,0,0,1-.93-.05,6.63,6.63,0,0,1-1.12-.22,4,4,0,0,1-1.91-1.11,13,13,0,0,1-2.49-4q-1.22-2.71-3.08-7t-3.78-8.73l-3.34-7.75q-1.41-3.29-1.75-4.06a8.24,8.24,0,0,0-.68-1.35q-.23-.32-.45-.29c-.14,0-.29.09-.45.33a9.91,9.91,0,0,0-.68,1.46Zm7.17-10.09a.19.19,0,0,1-.17-.07c0-.05,0-.13,0-.25l4.51-12.33q.39-1,.77,0l4.87,12.33a.36.36,0,0,1,0,.23c0,.06-.09.09-.22.09Z"/><path id="path3398-4-6-1-9-1-1-2" data-name="path3398-4-6-1-9-1-1" class="cls-3" d="M425.57,179.37q1.35,1.36,5.07,5t8.3,8.08q2.8,2.68,5.76,5.43t5.11,4.7q2.15,2,2.51,2.26,2,1.77,2.73,2.37t1,.56c.18.05.3-.11.37-.49a21.64,21.64,0,0,0,.1-2.75l.1-26.78a8.39,8.39,0,0,1,.31-2.94,1.86,1.86,0,0,1,1.58-1.13,5.62,5.62,0,0,1,.75-.12l.48,0a.84.84,0,0,0,.42-.09.27.27,0,0,0,.15-.23c0-.13-.09-.22-.25-.26a2.65,2.65,0,0,0-.67-.06q-1.6,0-2.75.07l-1.6.07-2-.07q-1.52-.06-3.32-.07a3.26,3.26,0,0,0-.74.06c-.18,0-.28.13-.28.26a.31.31,0,0,0,.07.23.48.48,0,0,0,.34.09q.34,0,1.06,0a12.45,12.45,0,0,1,1.45.18,2,2,0,0,1,1.58,1.19,8.72,8.72,0,0,1,.42,3.15l.56,23.22q-1.37-1.28-4.86-4.71t-7.44-7.21q-6.12-5.86-10.82-10.38t-5.48-5.3l-.93-.9a1.82,1.82,0,0,0-.86-.56c-.2,0-.35.14-.44.47a8.25,8.25,0,0,0-.13,1.81l-.05,26.19a20.12,20.12,0,0,1-.29,4.34c-.21.85-.62,1.34-1.25,1.46a7.07,7.07,0,0,1-1.18.22c-.39,0-.7.05-.92.05s-.4.09-.41.27a.3.3,0,0,0,.22.3,1.89,1.89,0,0,0,.6.06q1.78,0,3.15-.07l1.77-.07,1.79.07q1.43.06,3.64.07a2.06,2.06,0,0,0,.69-.08.29.29,0,0,0,.23-.28c0-.18-.14-.27-.41-.27s-.61,0-1.09-.05a11.14,11.14,0,0,1-1.47-.22,2,2,0,0,1-1.48-1.38,12.63,12.63,0,0,1-.52-3.92Z"/><path id="path12830-0-9-5-3-5-1-12-0-4-3-8-97-2" data-name="path12830-0-9-5-3-5-1-12-0-4-3-8-97" class="cls-3" d="M491.49,162.83c41.3,60.6,11.14,49.66-9.7,36.7l-5.61,12.87a32.51,32.51,0,0,0,15.31,3.77c16.73,0,30.29-12.3,30.29-27.48s-13.56-25.86-30.29-25.86Zm-9.7,36.7,2.08-5.28a.52.52,0,0,1,.51-.36h10.8a.53.53,0,0,1,.29.09.45.45,0,0,1,.13.19l4.69,11.23a1.19,1.19,0,0,1,.11.85.56.56,0,0,1-.37.36.83.83,0,0,0-.29.12.26.26,0,0,0-.08.22c0,.13.14.21.4.24s.64.05,1.12.07c1.8,0,3.45.09,5,.1s2.46,0,2.91,0a2.54,2.54,0,0,0,.72-.1c.19-.05.31-.13.32-.27a.26.26,0,0,0-.16-.24,1,1,0,0,0-.37,0,8.94,8.94,0,0,1-.91,0,6.46,6.46,0,0,1-1.09-.24,3.79,3.79,0,0,1-1.87-1.09c-4.12-6-6.41-13.1-9.2-19.69-1.26-3-2.35-5.52-3.28-7.72s-1.49-3.58-1.71-4.09a7.88,7.88,0,0,0-.67-1.33c-.15-.21-.29-.31-.43-.29s-.3.08-.45.31a10.7,10.7,0,0,0-.64,1.45l-9.84,24.36,2.32,1.16Zm-2.32-1.16c-10.71-6.5-18.31-14.37-18.31-9.68,0,9.2,5,17.36,12.67,22.35Zm10.08-19.26c.13,0,.27.17.4.51l4.75,12.31c0,.09.07.18.05.24s-.12.07-.24.07h-9.58c-.08,0-.15,0-.19,0a.32.32,0,0,1,0-.27l4.4-12.31c.13-.34.25-.51.37-.51h0Z"/><path id="path3383-2-6-1-1-1-5-3" data-name="path3383-2-6-1-1-1-5" class="cls-1" d="M171.82,186.39q0-5.23,0-7.16t.09-2.85a3.58,3.58,0,0,1,.48-1.84,2.11,2.11,0,0,1,1.52-.8q.48-.07.94-.1l.75,0a.55.55,0,0,0,.28-.07.24.24,0,0,0,.13-.21.29.29,0,0,0-.2-.29,1.68,1.68,0,0,0-.62-.08q-1.33,0-3.25.07l-2.29.07-2.13-.07q-1.81-.06-3.66-.07a1.67,1.67,0,0,0-.62.08.29.29,0,0,0-.2.29.24.24,0,0,0,.13.21.56.56,0,0,0,.28.07l.89,0a6.54,6.54,0,0,1,.85.1,2.62,2.62,0,0,1,1.7.85,3.19,3.19,0,0,1,.51,1.79q.07.92.09,2.85t0,7.16v8.15q0,3.36,0,6a40.28,40.28,0,0,1-.22,4.09,6.19,6.19,0,0,1-.44,1.71,1.4,1.4,0,0,1-1.05.84c-.24,0-.49.09-.77.13a5.69,5.69,0,0,1-.77.06.5.5,0,0,0-.32.09.24.24,0,0,0-.09.19.29.29,0,0,0,.2.29,1.6,1.6,0,0,0,.62.08l1.36,0,1.56-.07,1.36,0,.74,0q1.1,0,2.36,0l2.86.1,3.68.09q2.08,0,4.83.05a7.4,7.4,0,0,0,2.5-.23,1.37,1.37,0,0,0,.73-1,20.79,20.79,0,0,0,.54-2.63q.22-1.51.23-2a1.6,1.6,0,0,0-.06-.54.24.24,0,0,0-.25-.16.36.36,0,0,0-.33.17,1.09,1.09,0,0,0-.13.44,5.82,5.82,0,0,1-.47,1.44,5.6,5.6,0,0,1-.86,1.34,4.27,4.27,0,0,1-2.54,1.2,22.82,22.82,0,0,1-3.66.19,24.93,24.93,0,0,1-4.26-.26,3.61,3.61,0,0,1-1.88-.81q-.68-.57-.91-3.06t-.22-7.54Z"/><path id="path3385-6-1-7-3-2-3-3" data-name="path3385-6-1-7-3-2-3" class="cls-1" d="M199.37,200.06c0,.4,0,1,0,1.87s-.06,1.78-.13,2.78a4.29,4.29,0,0,1-.42,1.71,1.53,1.53,0,0,1-1.08.85l-.72.13a5.49,5.49,0,0,1-.73.06.45.45,0,0,0-.3.09.24.24,0,0,0-.08.19.29.29,0,0,0,.19.29,1.47,1.47,0,0,0,.59.08q1.23,0,2.82-.07l1.92-.07,2.07.07q1.79.06,3.88.07c.52,0,.78-.13.77-.37a.24.24,0,0,0-.08-.19.44.44,0,0,0-.3-.09c-.24,0-.57,0-1-.06l-1.18-.13a2,2,0,0,1-1.5-.85,3.49,3.49,0,0,1-.48-1.71c-.07-1-.11-1.93-.13-2.78s0-1.48,0-1.87v-4a18.87,18.87,0,0,1,.09-2.27,8.35,8.35,0,0,1,.63-2.38q.54-1.17,2.43-4.31t3.9-6.26q2-3.12,2.91-4.22a18.26,18.26,0,0,1,1.32-1.45,6.25,6.25,0,0,1,1.25-.92,4.71,4.71,0,0,1,1.2-.5,4.17,4.17,0,0,1,1-.15.92.92,0,0,0,.46-.1.31.31,0,0,0,.17-.27q0-.14-.19-.21a1.23,1.23,0,0,0-.44-.07l-2.58.07-2.11.07-1.27-.07q-.93-.06-1.92-.07a1.81,1.81,0,0,0-.57.07c-.14,0-.2.12-.21.21a.31.31,0,0,0,.2.27,3.34,3.34,0,0,0,.53.2.88.88,0,0,1,.6.46,1.8,1.8,0,0,1,.17.84,3.38,3.38,0,0,1-.17,1,5.66,5.66,0,0,1-.65,1.33q-.58.92-2.31,3.79T204.45,187q-1.72,2.94-2.27,4.07-.55-.87-2.52-4.11t-3.92-6.48q-2-3.24-2.46-4.11a7,7,0,0,1-.46-1,2.45,2.45,0,0,1-.17-.85.78.78,0,0,1,.17-.49,1.29,1.29,0,0,1,.46-.35l.53-.21c.13-.05.2-.12.2-.21a.25.25,0,0,0-.12-.23,1,1,0,0,0-.51-.09c-1,0-1.85,0-2.61.07l-1.45.07-2.14-.07-2.65-.07a1,1,0,0,0-.48.09.27.27,0,0,0-.15.23.28.28,0,0,0,.15.25.68.68,0,0,0,.33.08,3.23,3.23,0,0,1,.93.2,5.41,5.41,0,0,1,1.15.55,9.09,9.09,0,0,1,1.52,1.28,17.3,17.3,0,0,1,1.77,2.16q1,1.37,2.89,4.38t3.65,5.75q1.71,2.73,2,3.27a12.06,12.06,0,0,1,.79,2,10.87,10.87,0,0,1,.32,2.88Z"/><path id="path3387-0-54-1-8-0-9-3" data-name="path3387-0-54-1-8-0-9" class="cls-1" d="M239.13,175.39l6.12.09a11.45,11.45,0,0,1,4.68.78,2.1,2.1,0,0,1,1.29,1.75l0,.51a1.83,1.83,0,0,0,.12.63.27.27,0,0,0,.27.15.28.28,0,0,0,.24-.14.88.88,0,0,0,.1-.45q0-.52.07-2.2t.07-2.86a1.45,1.45,0,0,0,0-.38.21.21,0,0,0-.21-.17,3.15,3.15,0,0,0-.48.08c-.22,0-.52.1-.88.15a13.4,13.4,0,0,1-1.43.17c-.57,0-1.24.06-2,.06H228.88c-.32,0-.86,0-1.61-.06s-1.49-.1-2.23-.17a4.74,4.74,0,0,1-1.43-.31,2.66,2.66,0,0,0-.7-.24c-.1,0-.19.13-.28.33s-.15.38-.21.54q-.13.5-.57,2.36t-.5,2.42c0,.28.09.41.24.41a.36.36,0,0,0,.26-.09.92.92,0,0,0,.22-.37c.07-.15.15-.33.27-.54s.3-.5.56-.89a2.82,2.82,0,0,1,1.64-1.13,13.11,13.11,0,0,1,3.32-.34l7.19-.09v19.45q0,3.34,0,5.92c0,1.72-.1,3.07-.21,4.06a6.37,6.37,0,0,1-.41,1.69,1.34,1.34,0,0,1-1,.84l-.73.12a5.08,5.08,0,0,1-.73.06.47.47,0,0,0-.3.09.24.24,0,0,0-.09.19.29.29,0,0,0,.19.29,1.58,1.58,0,0,0,.59.08q1.23,0,2.84-.07l1.92-.07,2.08.07q1.79.06,3.9.07c.53,0,.79-.13.78-.37a.24.24,0,0,0-.08-.19.45.45,0,0,0-.3-.09c-.24,0-.57,0-1-.06l-1.18-.12a1.81,1.81,0,0,1-1.44-.84,4.1,4.1,0,0,1-.46-1.69c-.12-1-.19-2.34-.21-4.06s0-3.69,0-5.92Z"/><path id="path3389-1-20-1-7-1-2-3" data-name="path3389-1-20-1-7-1-2" class="cls-1" d="M264.44,186.47q0-5.21,0-7.14t.09-2.84a3.86,3.86,0,0,1,.44-1.84,1.83,1.83,0,0,1,1.35-.8l.69-.1a4.08,4.08,0,0,1,.52,0,.5.5,0,0,0,.27-.07.24.24,0,0,0,.12-.21.29.29,0,0,0-.19-.29,1.5,1.5,0,0,0-.59-.08q-1.22,0-2.82.07l-1.91.07-1.93-.07q-1.62-.06-2.95-.07a1.49,1.49,0,0,0-.59.08.29.29,0,0,0-.19.29.24.24,0,0,0,.12.21.5.5,0,0,0,.27.07,6.51,6.51,0,0,1,.68,0,6,6,0,0,1,.82.14,1.76,1.76,0,0,1,1.18.79,3.83,3.83,0,0,1,.46,1.79q.07.92.09,2.84t0,7.14v8.13q0,3.35,0,5.95t-.21,4.07a6.38,6.38,0,0,1-.41,1.7,1.33,1.33,0,0,1-1,.84l-.73.13a5.84,5.84,0,0,1-.72.06.46.46,0,0,0-.3.09.24.24,0,0,0-.08.19.29.29,0,0,0,.19.29,1.5,1.5,0,0,0,.58.08q1.23,0,2.82-.07l1.91-.07,2.06.07q1.78.06,3.88.07c.52,0,.78-.13.77-.37a.24.24,0,0,0-.09-.19.45.45,0,0,0-.3-.09c-.24,0-.57,0-1-.06l-1.18-.13a1.81,1.81,0,0,1-1.43-.84,4.2,4.2,0,0,1-.45-1.7q-.17-1.48-.21-4.07t0-5.95Z"/><path id="path3391-6-9-5-4-6-4-3" data-name="path3391-6-9-5-4-6-4" class="cls-1" d="M291.55,208.9a42.63,42.63,0,0,0,4.74-.25,16.7,16.7,0,0,0,3.88-.81,2.44,2.44,0,0,0,.84-.48,2.25,2.25,0,0,0,.41-.87,31.37,31.37,0,0,0,.71-3.44q.32-2.06.35-2.5a1.27,1.27,0,0,0-.08-.49.28.28,0,0,0-.26-.21.33.33,0,0,0-.31.16,1.54,1.54,0,0,0-.17.54,10.24,10.24,0,0,1-.56,1.88,6.31,6.31,0,0,1-1.21,2,7.34,7.34,0,0,1-3.53,1.87,20.38,20.38,0,0,1-4.79.45,17.48,17.48,0,0,1-9-2.44,17,17,0,0,1-8.24-14.55,22,22,0,0,1,.84-6.61,12.41,12.41,0,0,1,3.46-5.5,10.79,10.79,0,0,1,3.74-2.29,22.79,22.79,0,0,1,13-.3,11.08,11.08,0,0,1,3.83,1.84,5.34,5.34,0,0,1,1.47,2.07,7,7,0,0,1,.54,2.66,2.48,2.48,0,0,0,.07.73.3.3,0,0,0,.32.24.31.31,0,0,0,.3-.23,2.53,2.53,0,0,0,.13-.75c0-.41,0-1.1.05-2.08s0-1.88.09-2.7.1-1.41.16-1.79.08-.64.08-.81a.44.44,0,0,0-.11-.34.82.82,0,0,0-.51-.17q-1.14-.07-2.33-.26t-2.55-.44a35.93,35.93,0,0,0-3.63-.44q-1.84-.13-3.31-.12a25.29,25.29,0,0,0-9,1.44,16,16,0,0,0-5.61,3.53,17.49,17.49,0,0,0-4.28,6.71,18.21,18.21,0,0,0-1.08,5.95,20.42,20.42,0,0,0,1.15,7,16.15,16.15,0,0,0,4.64,6.73,18.71,18.71,0,0,0,6.62,3.74,29.43,29.43,0,0,0,9.17,1.27Z"/><path id="path3393-5-7-2-2-4-61-3" data-name="path3393-5-7-2-2-4-61" class="cls-1" d="M310.13,203.09a10.05,10.05,0,0,1-1.6,2.9,4,4,0,0,1-2.67,1.39l-.76.06-.72,0a.68.68,0,0,0-.33.07.23.23,0,0,0-.13.21.29.29,0,0,0,.24.28,2.35,2.35,0,0,0,.73.08q1.88,0,3.56-.07l2.19-.07,1.74.07c.82,0,1.57.06,2.23.07a1.5,1.5,0,0,0,.56-.08.3.3,0,0,0,.21-.28c0-.18-.16-.27-.51-.27h-.51a2.69,2.69,0,0,1-1.29-.32,1.15,1.15,0,0,1-.64-1,6.43,6.43,0,0,1,.18-1.41,11.54,11.54,0,0,1,.53-1.65l3.05-8.08a.53.53,0,0,1,.51-.36h10.95a.52.52,0,0,1,.29.07.57.57,0,0,1,.17.21l4.73,11.23a1.17,1.17,0,0,1,.08.85.6.6,0,0,1-.38.38.63.63,0,0,0-.25.11.25.25,0,0,0-.1.21c0,.13.14.21.4.25s.64.06,1.13.07q2.73.07,5,.08h3a2.59,2.59,0,0,0,.72-.08c.19-.05.29-.15.3-.28a.22.22,0,0,0-.14-.22,1,1,0,0,0-.37-.05,7.62,7.62,0,0,1-.92-.05,6.34,6.34,0,0,1-1.12-.22,4,4,0,0,1-1.9-1.11,13.06,13.06,0,0,1-2.48-4q-1.21-2.72-3.06-7T329,186.41l-3.32-7.76-1.74-4.06a8.34,8.34,0,0,0-.68-1.35c-.16-.21-.3-.31-.45-.29s-.29.09-.45.33a9.84,9.84,0,0,0-.67,1.46ZM317.26,193a.19.19,0,0,1-.17-.07c0-.05,0-.13,0-.25l4.48-12.33c.26-.69.51-.69.76,0l4.84,12.33a.36.36,0,0,1,0,.23c0,.06-.09.09-.22.09Z"/><path id="path3396-5-2-6-7-6-1-3" data-name="path3396-5-2-6-7-6-1" class="cls-1" d="M25,203.09a10,10,0,0,1-1.61,2.9,4.06,4.06,0,0,1-2.69,1.39l-.76.06-.72,0a.67.67,0,0,0-.33.07.23.23,0,0,0-.13.2.29.29,0,0,0,.24.28,2.3,2.3,0,0,0,.74.08q1.89,0,3.59-.07l2.2-.07,1.75.07q1.24.06,2.25.07A1.45,1.45,0,0,0,30,208a.29.29,0,0,0,.21-.28c0-.18-.16-.27-.51-.27h-.51a2.72,2.72,0,0,1-1.3-.32,1.15,1.15,0,0,1-.65-1,6.35,6.35,0,0,1,.19-1.41,11.48,11.48,0,0,1,.53-1.65L31.06,195a.53.53,0,0,1,.51-.36h11a.51.51,0,0,1,.29.07.55.55,0,0,1,.17.21l4.76,11.23a1.16,1.16,0,0,1,.08.86.6.6,0,0,1-.38.38.63.63,0,0,0-.26.11.26.26,0,0,0-.1.21c0,.13.14.21.4.25s.64.06,1.13.07q2.75.07,5.06.08h3a2.53,2.53,0,0,0,.72-.08c.19-.05.29-.15.3-.28a.22.22,0,0,0-.14-.22.92.92,0,0,0-.37-.05,8.22,8.22,0,0,1-.93-.05,6.63,6.63,0,0,1-1.12-.22,4,4,0,0,1-1.91-1.11,13,13,0,0,1-2.49-4q-1.22-2.71-3.08-7t-3.78-8.73l-3.34-7.75q-1.41-3.29-1.75-4.06a8.24,8.24,0,0,0-.68-1.35q-.23-.32-.45-.29c-.14,0-.29.09-.45.33a9.91,9.91,0,0,0-.68,1.46ZM32.13,193a.19.19,0,0,1-.17-.07c0-.05,0-.13,0-.25l4.51-12.33q.39-1,.77,0l4.87,12.33a.36.36,0,0,1,0,.23c0,.06-.09.09-.22.09Z"/><path id="path3398-4-6-1-9-1-1-3" data-name="path3398-4-6-1-9-1-1" class="cls-1" d="M66.28,180q1.35,1.36,5.07,5t8.3,8.08q2.8,2.68,5.76,5.43t5.11,4.7q2.15,2,2.51,2.26,2,1.77,2.73,2.37t1,.56c.18.05.3-.11.37-.49a21.64,21.64,0,0,0,.1-2.75l.1-26.78a8.39,8.39,0,0,1,.31-2.94,1.86,1.86,0,0,1,1.58-1.13,5.62,5.62,0,0,1,.75-.12l.48,0a.84.84,0,0,0,.42-.09.27.27,0,0,0,.15-.23c0-.13-.09-.22-.25-.26a2.65,2.65,0,0,0-.67-.06q-1.6,0-2.75.07l-1.6.07-2-.07q-1.52-.06-3.32-.07a3.26,3.26,0,0,0-.74.06c-.18,0-.28.13-.28.26a.31.31,0,0,0,.07.23.48.48,0,0,0,.34.09q.34,0,1.06,0a12.45,12.45,0,0,1,1.45.18,2,2,0,0,1,1.58,1.19,8.72,8.72,0,0,1,.42,3.15L94.87,202q-1.37-1.28-4.86-4.71T82.57,190q-6.12-5.86-10.82-10.38t-5.48-5.3l-.93-.9a1.82,1.82,0,0,0-.86-.56c-.2,0-.35.14-.44.47a8.25,8.25,0,0,0-.13,1.81l-.05,26.19a20.12,20.12,0,0,1-.29,4.34c-.21.85-.62,1.34-1.25,1.46a7.07,7.07,0,0,1-1.18.22c-.39,0-.7.05-.92.05s-.4.09-.41.27a.3.3,0,0,0,.22.3,1.89,1.89,0,0,0,.6.06q1.78,0,3.15-.07l1.77-.07,1.79.07q1.43.06,3.64.07a2.06,2.06,0,0,0,.69-.08.29.29,0,0,0,.23-.28c0-.18-.14-.27-.41-.27s-.61,0-1.09-.05a11.14,11.14,0,0,1-1.47-.22,2,2,0,0,1-1.48-1.38,12.63,12.63,0,0,1-.52-3.92Z"/><path id="path12830-0-9-5-3-5-1-12-0-4-3-8-97-3" data-name="path12830-0-9-5-3-5-1-12-0-4-3-8-97" class="cls-1" d="M132.2,163.43c41.3,60.6,11.14,49.66-9.7,36.7L116.89,213a32.51,32.51,0,0,0,15.31,3.77c16.73,0,30.29-12.3,30.29-27.48s-13.56-25.86-30.29-25.86Zm-9.7,36.7,2.08-5.28a.52.52,0,0,1,.51-.36h10.8a.53.53,0,0,1,.29.09.45.45,0,0,1,.13.19L141,206a1.19,1.19,0,0,1,.11.85.56.56,0,0,1-.37.36.83.83,0,0,0-.29.12.26.26,0,0,0-.08.22c0,.13.14.21.4.24s.64.05,1.12.07c1.8,0,3.45.09,5,.1s2.46,0,2.91,0a2.54,2.54,0,0,0,.72-.1c.19-.05.31-.13.32-.27a.26.26,0,0,0-.16-.24,1,1,0,0,0-.37,0,8.94,8.94,0,0,1-.91,0,6.46,6.46,0,0,1-1.09-.24A3.79,3.79,0,0,1,146.4,206c-4.12-6-6.41-13.1-9.2-19.69-1.26-3-2.35-5.52-3.28-7.72s-1.49-3.58-1.71-4.09a7.88,7.88,0,0,0-.67-1.33c-.15-.21-.29-.31-.43-.29s-.3.08-.45.31a10.7,10.7,0,0,0-.64,1.45L120.18,199l2.32,1.16ZM120.18,199c-10.71-6.5-18.31-14.37-18.31-9.68,0,9.2,5,17.36,12.67,22.35Zm10.08-19.26c.13,0,.27.17.4.51l4.75,12.31c0,.09.07.18.05.24s-.12.07-.24.07h-9.58c-.08,0-.15,0-.19,0a.32.32,0,0,1,0-.27l4.4-12.31c.13-.34.25-.51.37-.51h0Z"/></svg>