<svg id="Layer_1" data-name="Layer 1" xmlns="http://www.w3.org/2000/svg" viewBox="0 0 395.59 371.98"><defs><style>.cls-1{fill:#231f20;}</style></defs><title>Analytica_Logo_Alternate_Black_Vector</title><path id="path12830-0-9-5-3-5-1-12-0-4-3-8-97" class="cls-1" d="M197.86,42c175.9,258.1,47.45,211.51-41.3,156.31l-23.9,54.81a138.46,138.46,0,0,0,65.2,16.08c71.28,0,129-52.38,129-117.05S269.14,42,197.86,42ZM156.55,198.3l8.86-22.47a2.22,2.22,0,0,1,2.16-1.53h46a2.27,2.27,0,0,1,1.25.4,1.9,1.9,0,0,1,.57.83l20,47.82c.59,1.54.83,2.72.45,3.6a2.4,2.4,0,0,1-1.59,1.54A3.52,3.52,0,0,0,233,229a1.12,1.12,0,0,0-.34.93c0,.55.59.9,1.7,1s2.72.23,4.77.3c7.67.19,14.69.37,21.13.41s10.5,0,12.38,0a10.81,10.81,0,0,0,3.06-.41c.81-.23,1.34-.55,1.36-1.13a1.13,1.13,0,0,0-.68-1,4.44,4.44,0,0,0-1.59-.11,38.08,38.08,0,0,1-3.86-.2,27.51,27.51,0,0,1-4.66-1c-2.25-.33-4.87-1.81-8-4.64-17.57-25.55-27.29-55.78-39.19-83.87-5.36-12.67-10-23.52-14-32.87S198.84,91.15,197.9,89a33.57,33.57,0,0,0-2.84-5.67c-.65-.91-1.22-1.32-1.82-1.24-.6-.08-1.28.33-1.93,1.34a45.59,45.59,0,0,0-2.73,6.18L146.67,193.35c3.24,1.62,6.59,3.29,9.88,5Zm-9.88-5c-45.6-27.68-78-61.2-78-41.21,0,39.2,21.35,74,54,95.21Zm42.94-82c.54,0,1.17.71,1.71,2.16l20.22,52.45c.13.4.32.78.23,1s-.5.3-1,.31H170c-.33,0-.65,0-.79-.21a1.36,1.36,0,0,1,.11-1.13L188,113.5c.54-1.46,1.06-2.16,1.59-2.16h0Z"/><path id="path3383-2-6-1-1-1-5" class="cls-1" d="M176.48,307q0-5.33,0-7.29t.09-2.9a3.58,3.58,0,0,1,.5-1.88,2.21,2.21,0,0,1,1.59-.81q.5-.07,1-.11l.78,0a.59.59,0,0,0,.29-.07.24.24,0,0,0,.13-.21.3.3,0,0,0-.21-.3,1.79,1.79,0,0,0-.65-.08q-1.39,0-3.39.07l-2.39.07-2.22-.07q-1.89-.06-3.83-.07a1.78,1.78,0,0,0-.65.08.3.3,0,0,0-.21.3.24.24,0,0,0,.13.21.6.6,0,0,0,.29.07l.93,0a7,7,0,0,1,.89.11,2.76,2.76,0,0,1,1.77.87,3.2,3.2,0,0,1,.53,1.82q.08.94.09,2.9t0,7.29v8.31q0,3.43,0,6.08a40.06,40.06,0,0,1-.23,4.16,6.19,6.19,0,0,1-.45,1.74,1.46,1.46,0,0,1-1.1.86c-.25.05-.52.09-.8.13a6.08,6.08,0,0,1-.8.06.53.53,0,0,0-.33.09.24.24,0,0,0-.09.2.29.29,0,0,0,.21.29,1.71,1.71,0,0,0,.65.08l1.42,0L172,329l1.42,0,.78,0q1.15,0,2.47,0l3,.11,3.84.09q2.17,0,5,.05a7.92,7.92,0,0,0,2.61-.23,1.4,1.4,0,0,0,.76-1,20.73,20.73,0,0,0,.56-2.68,20.18,20.18,0,0,0,.24-2,1.59,1.59,0,0,0-.06-.55.25.25,0,0,0-.26-.16.38.38,0,0,0-.34.17,1.09,1.09,0,0,0-.14.45,5.83,5.83,0,0,1-.49,1.47,5.69,5.69,0,0,1-.9,1.36,4.51,4.51,0,0,1-2.66,1.22,24.42,24.42,0,0,1-3.82.2,26.69,26.69,0,0,1-4.45-.26,3.81,3.81,0,0,1-2-.83q-.71-.58-.95-3.12t-.23-7.69Z"/><path id="path3385-6-1-7-3-2-3" class="cls-1" d="M205.26,321c0,.41,0,1,0,1.91s-.06,1.81-.13,2.83a4.28,4.28,0,0,1-.44,1.75,1.6,1.6,0,0,1-1.12.86l-.76.13a5.88,5.88,0,0,1-.76.06.48.48,0,0,0-.31.09.24.24,0,0,0-.09.2.29.29,0,0,0,.2.29,1.57,1.57,0,0,0,.61.08q1.28,0,2.95-.07l2-.07,2.16.07q1.87.06,4.05.07c.55,0,.82-.14.81-.38a.25.25,0,0,0-.09-.2.47.47,0,0,0-.32-.09c-.25,0-.6,0-1-.06s-.85-.08-1.23-.13a2.09,2.09,0,0,1-1.57-.86,3.49,3.49,0,0,1-.51-1.75c-.07-1-.12-2-.13-2.83s0-1.5,0-1.91v-4.08a18.76,18.76,0,0,1,.09-2.32,8.34,8.34,0,0,1,.66-2.42q.56-1.19,2.54-4.39t4.07-6.38q2.1-3.18,3-4.3a18.78,18.78,0,0,1,1.38-1.47,6.52,6.52,0,0,1,1.3-.94,5,5,0,0,1,1.25-.51,4.46,4.46,0,0,1,1.07-.15,1,1,0,0,0,.48-.1.31.31,0,0,0,.18-.28q0-.14-.2-.21a1.31,1.31,0,0,0-.46-.07q-.91,0-2.7.07l-2.2.07-1.33-.07q-1-.06-2-.07a1.94,1.94,0,0,0-.59.07c-.14,0-.21.12-.21.21a.32.32,0,0,0,.21.27,3.54,3.54,0,0,0,.55.2.92.92,0,0,1,.63.47,1.8,1.8,0,0,1,.18.86,3.37,3.37,0,0,1-.18,1.07,5.71,5.71,0,0,1-.68,1.35q-.6.94-2.41,3.86t-3.6,5.92q-1.79,3-2.38,4.15-.58-.89-2.63-4.19t-4.09-6.6q-2-3.3-2.57-4.19a7.08,7.08,0,0,1-.48-1,2.45,2.45,0,0,1-.18-.87.78.78,0,0,1,.18-.5,1.34,1.34,0,0,1,.48-.36l.55-.21c.14-.05.21-.13.21-.21a.26.26,0,0,0-.12-.24,1,1,0,0,0-.54-.09c-1,0-1.93,0-2.73.07l-1.52.07-2.23-.07-2.77-.07a1.06,1.06,0,0,0-.5.09.27.27,0,0,0-.16.24.29.29,0,0,0,.16.26.73.73,0,0,0,.35.08,3.44,3.44,0,0,1,1,.2,5.72,5.72,0,0,1,1.2.56,9.44,9.44,0,0,1,1.58,1.31,17.73,17.73,0,0,1,1.85,2.2q1,1.4,3,4.47t3.81,5.86q1.78,2.79,2.07,3.33a12.11,12.11,0,0,1,.83,2,10.82,10.82,0,0,1,.33,2.93Z"/><path id="path3387-0-54-1-8-0-9" class="cls-1" d="M246.79,295.84l6.39.09a12.22,12.22,0,0,1,4.89.8,2.14,2.14,0,0,1,1.35,1.78l.05.52a1.82,1.82,0,0,0,.12.64.28.28,0,0,0,.28.15.29.29,0,0,0,.25-.15.88.88,0,0,0,.1-.46q0-.53.08-2.24t.08-2.91a1.45,1.45,0,0,0,0-.39.21.21,0,0,0-.22-.18,3.37,3.37,0,0,0-.5.08c-.23.05-.54.1-.92.15a14.33,14.33,0,0,1-1.5.17c-.59,0-1.3.06-2.11.07h-19c-.34,0-.9,0-1.68-.07s-1.55-.1-2.33-.17a5.06,5.06,0,0,1-1.5-.32,2.83,2.83,0,0,0-.73-.25c-.1,0-.2.13-.29.34s-.16.39-.22.55q-.13.51-.6,2.4a24.9,24.9,0,0,0-.52,2.47c0,.28.09.42.25.42a.39.39,0,0,0,.27-.09.94.94,0,0,0,.23-.37c.07-.15.16-.34.28-.55s.31-.51.59-.9a2.94,2.94,0,0,1,1.71-1.15,14,14,0,0,1,3.46-.35l7.51-.09v19.82q0,3.4,0,6c0,1.76-.1,3.13-.22,4.14a6.36,6.36,0,0,1-.43,1.73,1.39,1.39,0,0,1-1,.85l-.76.13a5.44,5.44,0,0,1-.76.06.5.5,0,0,0-.32.09.24.24,0,0,0-.09.19.3.3,0,0,0,.2.29,1.69,1.69,0,0,0,.61.08q1.29,0,3-.07l2-.07,2.17.07q1.87.06,4.07.07c.55,0,.82-.13.81-.38a.24.24,0,0,0-.09-.19.48.48,0,0,0-.32-.09c-.25,0-.6,0-1-.06l-1.24-.13a1.9,1.9,0,0,1-1.5-.85,4.1,4.1,0,0,1-.48-1.73c-.12-1-.19-2.38-.22-4.14s0-3.76,0-6Z"/><path id="path3389-1-20-1-7-1-2" class="cls-1" d="M273.22,307.13q0-5.31,0-7.27t.09-2.89a3.86,3.86,0,0,1,.46-1.87,1.92,1.92,0,0,1,1.41-.81l.72-.11a4.37,4.37,0,0,1,.54,0,.53.53,0,0,0,.28-.07.25.25,0,0,0,.13-.21.3.3,0,0,0-.2-.29,1.61,1.61,0,0,0-.61-.08q-1.28,0-2.95.07l-2,.07-2-.07q-1.69-.06-3.08-.07a1.59,1.59,0,0,0-.61.08.3.3,0,0,0-.2.29.24.24,0,0,0,.13.21.54.54,0,0,0,.28.07,7,7,0,0,1,.71,0,6.35,6.35,0,0,1,.86.15,1.84,1.84,0,0,1,1.24.81,3.83,3.83,0,0,1,.48,1.83q.07.94.09,2.89t0,7.27v8.28q0,3.42,0,6.06t-.22,4.15a6.37,6.37,0,0,1-.43,1.74,1.38,1.38,0,0,1-1,.85l-.76.13a6.25,6.25,0,0,1-.76.06.48.48,0,0,0-.32.09.25.25,0,0,0-.09.19.3.3,0,0,0,.2.29,1.6,1.6,0,0,0,.61.08q1.28,0,2.95-.07l2-.07,2.16.07q1.86.06,4,.07c.55,0,.82-.14.81-.38a.24.24,0,0,0-.09-.19.48.48,0,0,0-.32-.09c-.25,0-.6,0-1-.06s-.85-.08-1.23-.13a1.89,1.89,0,0,1-1.5-.85,4.2,4.2,0,0,1-.47-1.74q-.18-1.51-.22-4.15t0-6.06Z"/><path id="path3391-6-9-5-4-6-4" class="cls-1" d="M301.55,330a45.64,45.64,0,0,0,4.95-.26,17.82,17.82,0,0,0,4-.83,2.56,2.56,0,0,0,.87-.49,2.27,2.27,0,0,0,.42-.88,31.29,31.29,0,0,0,.74-3.5q.34-2.1.36-2.55a1.26,1.26,0,0,0-.08-.5.29.29,0,0,0-.27-.21.35.35,0,0,0-.33.16,1.54,1.54,0,0,0-.17.55,10.24,10.24,0,0,1-.59,1.91,6.4,6.4,0,0,1-1.26,2.06,7.74,7.74,0,0,1-3.69,1.91,21.81,21.81,0,0,1-5,.46,18.6,18.6,0,0,1-9.43-2.48,17.45,17.45,0,0,1-6.31-6.32,17,17,0,0,1-2.3-8.5,21.88,21.88,0,0,1,.88-6.74,12.61,12.61,0,0,1,3.62-5.6,11.32,11.32,0,0,1,3.91-2.33,24.38,24.38,0,0,1,13.58-.31,11.7,11.7,0,0,1,4,1.88,5.45,5.45,0,0,1,1.54,2.11,7,7,0,0,1,.56,2.71,2.47,2.47,0,0,0,.07.74.32.32,0,0,0,.33.25.32.32,0,0,0,.32-.23,2.52,2.52,0,0,0,.13-.76c0-.42,0-1.12.06-2.12s0-1.91.1-2.75.11-1.44.16-1.82a8.26,8.26,0,0,0,.09-.83.44.44,0,0,0-.12-.35.87.87,0,0,0-.53-.17q-1.19-.08-2.44-.27t-2.66-.44q-1.87-.31-3.79-.44t-3.45-.12a27,27,0,0,0-9.38,1.47,16.81,16.81,0,0,0-5.86,3.59,17.77,17.77,0,0,0-4.47,6.84,18.15,18.15,0,0,0-1.13,6.06,20.35,20.35,0,0,0,1.21,7.14,16.45,16.45,0,0,0,4.84,6.86A19.68,19.68,0,0,0,292,328.7a31.46,31.46,0,0,0,9.58,1.29Z"/><path id="path3393-5-7-2-2-4-61" class="cls-1" d="M320.95,324.07a10.18,10.18,0,0,1-1.67,3,4.23,4.23,0,0,1-2.79,1.42l-.79.07-.75,0a.73.73,0,0,0-.34.07.23.23,0,0,0-.14.21c0,.14.08.23.25.29a2.51,2.51,0,0,0,.76.08q2,0,3.72-.07l2.29-.07,1.81.07c.86,0,1.64.06,2.33.07a1.6,1.6,0,0,0,.58-.08.3.3,0,0,0,.22-.29c0-.19-.17-.28-.53-.28h-.53a2.87,2.87,0,0,1-1.35-.33,1.17,1.17,0,0,1-.67-1,6.4,6.4,0,0,1,.19-1.44,11.56,11.56,0,0,1,.55-1.68l3.19-8.24a.55.55,0,0,1,.53-.37h11.43a.56.56,0,0,1,.3.07.59.59,0,0,1,.18.21l4.95,11.44a1.17,1.17,0,0,1,.08.87.62.62,0,0,1-.4.38.66.66,0,0,0-.27.11.25.25,0,0,0-.11.21c0,.13.14.21.42.25s.67.06,1.18.07q2.85.07,5.25.08h3.1a2.77,2.77,0,0,0,.75-.08c.2-.06.3-.15.31-.29a.22.22,0,0,0-.14-.23,1,1,0,0,0-.39-.05,8.15,8.15,0,0,1-1-.06,6.77,6.77,0,0,1-1.17-.22,4.16,4.16,0,0,1-2-1.13,13.28,13.28,0,0,1-2.59-4q-1.27-2.77-3.19-7.12t-3.92-8.9l-3.46-7.9L335.36,295a8.42,8.42,0,0,0-.71-1.38c-.16-.22-.32-.32-.47-.3s-.3.09-.46.33a9.92,9.92,0,0,0-.7,1.48Zm7.45-10.28a.21.21,0,0,1-.18-.08c0-.05,0-.14,0-.25l4.68-12.56c.27-.7.53-.7.8,0l5.05,12.56a.36.36,0,0,1,0,.23c0,.06-.1.09-.23.09Z"/><path id="path3396-5-2-6-7-6-1" class="cls-1" d="M47.13,324.07a10.14,10.14,0,0,1-1.69,3,4.27,4.27,0,0,1-2.81,1.42l-.8.06-.76,0a.72.72,0,0,0-.34.07.23.23,0,0,0-.14.21c0,.14.08.24.25.29a2.45,2.45,0,0,0,.77.08q2,0,3.75-.07l2.3-.07,1.83.07q1.3.06,2.35.07a1.55,1.55,0,0,0,.58-.08.3.3,0,0,0,.22-.29c0-.19-.17-.28-.54-.28h-.54a2.9,2.9,0,0,1-1.36-.33,1.17,1.17,0,0,1-.68-1,6.32,6.32,0,0,1,.19-1.43,11.49,11.49,0,0,1,.56-1.68l3.21-8.24a.55.55,0,0,1,.53-.37H65.54a.55.55,0,0,1,.3.07.57.57,0,0,1,.18.21l5,11.44a1.16,1.16,0,0,1,.08.87.62.62,0,0,1-.4.38.67.67,0,0,0-.27.11.26.26,0,0,0-.11.21c0,.13.14.22.42.25s.67.06,1.18.07q2.87.07,5.29.08h3.12a2.7,2.7,0,0,0,.76-.08c.2-.05.31-.15.31-.29a.22.22,0,0,0-.15-.22,1,1,0,0,0-.39-.05,8.8,8.8,0,0,1-1-.05,7.08,7.08,0,0,1-1.17-.23,4.19,4.19,0,0,1-2-1.13,13.26,13.26,0,0,1-2.6-4q-1.27-2.76-3.21-7.12t-3.95-8.9l-3.48-7.9Q62,295.82,61.64,295a8.32,8.32,0,0,0-.71-1.38q-.24-.33-.47-.3c-.15,0-.31.09-.47.33a10,10,0,0,0-.71,1.48Zm7.49-10.28a.2.2,0,0,1-.18-.08c0-.05,0-.13,0-.25l4.71-12.56q.4-1,.8,0l5.08,12.56a.36.36,0,0,1,0,.23c0,.06-.1.09-.23.09Z"/><path id="path3398-4-6-1-9-1-1" class="cls-1" d="M90.29,300.52q1.41,1.39,5.3,5.13t8.67,8.24q2.92,2.73,6,5.53t5.33,4.79q2.24,2,2.62,2.3,2.06,1.8,2.86,2.41t1,.57c.18.05.31-.11.38-.5a21.52,21.52,0,0,0,.1-2.81l.11-27.29a8.35,8.35,0,0,1,.33-3,1.94,1.94,0,0,1,1.65-1.15,6,6,0,0,1,.78-.12l.5,0a.89.89,0,0,0,.43-.09.27.27,0,0,0,.15-.23c0-.14-.09-.23-.26-.27a2.83,2.83,0,0,0-.7-.06q-1.67,0-2.88.07l-1.67.07L119,294q-1.59-.06-3.46-.07a3.49,3.49,0,0,0-.78.06c-.19,0-.29.13-.29.27a.31.31,0,0,0,.07.23.51.51,0,0,0,.35.09q.35,0,1.11,0a13.31,13.31,0,0,1,1.51.19,2.1,2.1,0,0,1,1.65,1.22,8.69,8.69,0,0,1,.44,3.21l.59,23.66q-1.43-1.31-5.08-4.8t-7.77-7.35q-6.4-6-11.3-10.57t-5.72-5.4l-1-.92a1.9,1.9,0,0,0-.9-.57c-.21,0-.36.14-.46.48a8.21,8.21,0,0,0-.13,1.85l-.05,26.69a20,20,0,0,1-.3,4.42c-.22.87-.65,1.37-1.3,1.49a7.55,7.55,0,0,1-1.24.23c-.41,0-.73.06-1,.05s-.42.09-.43.28a.3.3,0,0,0,.23.31,2,2,0,0,0,.63.07q1.86,0,3.29-.07l1.85-.07,1.87.07q1.49.06,3.8.07a2.2,2.2,0,0,0,.72-.08.3.3,0,0,0,.24-.29c0-.19-.15-.28-.43-.28s-.64,0-1.14-.05a11.91,11.91,0,0,1-1.54-.23,2.11,2.11,0,0,1-1.54-1.41,12.58,12.58,0,0,1-.54-4Z"/><path id="path3396-5-2-6-7-6-1-2" data-name="path3396-5-2-6-7-6-1" class="cls-1" d="M131.69,324.07a10.14,10.14,0,0,1-1.69,3,4.27,4.27,0,0,1-2.81,1.42l-.8.06-.76,0a.72.72,0,0,0-.34.07.23.23,0,0,0-.14.21c0,.14.08.24.25.29a2.45,2.45,0,0,0,.77.08q2,0,3.75-.07l2.3-.07,1.83.07q1.3.06,2.35.07a1.55,1.55,0,0,0,.58-.08.3.3,0,0,0,.22-.29c0-.19-.17-.28-.54-.28h-.54a2.9,2.9,0,0,1-1.36-.33,1.17,1.17,0,0,1-.68-1,6.32,6.32,0,0,1,.19-1.43,11.49,11.49,0,0,1,.56-1.68l3.21-8.24a.55.55,0,0,1,.53-.37h11.51a.55.55,0,0,1,.3.07.57.57,0,0,1,.18.21l5,11.44a1.16,1.16,0,0,1,.08.87.62.62,0,0,1-.4.38.67.67,0,0,0-.27.11.26.26,0,0,0-.11.21c0,.13.14.22.42.25s.67.06,1.18.07q2.87.07,5.29.08h3.12a2.7,2.7,0,0,0,.76-.08c.2-.05.31-.15.31-.29a.22.22,0,0,0-.15-.22,1,1,0,0,0-.39-.05,8.8,8.8,0,0,1-1-.05,7.08,7.08,0,0,1-1.17-.23,4.19,4.19,0,0,1-2-1.13,13.26,13.26,0,0,1-2.6-4q-1.27-2.76-3.21-7.12t-3.95-8.9l-3.48-7.9q-1.48-3.36-1.83-4.13a8.32,8.32,0,0,0-.71-1.38q-.24-.33-.47-.3c-.15,0-.31.09-.47.33a10,10,0,0,0-.71,1.48Zm7.49-10.28a.2.2,0,0,1-.18-.08c0-.05,0-.13,0-.25l4.71-12.56q.4-1,.8,0l5.08,12.56a.36.36,0,0,1,0,.23c0,.06-.1.09-.23.09Z"/></svg>