<svg id="Layer_1" data-name="Layer 1" xmlns="http://www.w3.org/2000/svg" xmlns:xlink="http://www.w3.org/1999/xlink" viewBox="0 0 292.67 272"><defs><style>.cls-1{fill:url(#radial-gradient);}</style><radialGradient id="radial-gradient" cx="1902.2" cy="-124.79" r="340.02" gradientTransform="matrix(0.45, 0.05, 0.05, -0.35, -670.26, -24.65)" gradientUnits="userSpaceOnUse"><stop offset="0" stop-color="#d71f27"/><stop offset="1" stop-color="#951b1e"/></radialGradient></defs><title>Analytica_Logo_Icon_Color_Vector</title><path id="path12830-0-9-5-3-5-1-12-0-4-3-8-97" class="cls-1" d="M146.38,46C285.73,250.47,184,213.57,113.66,169.84L94.73,213.26A109.69,109.69,0,0,0,146.38,226c56.47,0,102.23-41.5,102.23-92.73S202.85,46,146.38,46ZM113.66,169.84l7-17.8a1.76,1.76,0,0,1,1.71-1.21h36.44a1.8,1.8,0,0,1,1,.32,1.5,1.5,0,0,1,.45.66l15.84,37.88a4,4,0,0,1,.36,2.85,1.9,1.9,0,0,1-1.26,1.22,2.79,2.79,0,0,0-1,.41.89.89,0,0,0-.27.74c0,.44.47.71,1.35.82s2.16.18,3.78.24c6.07.15,11.64.3,16.74.33s8.32,0,9.81,0a8.56,8.56,0,0,0,2.43-.33c.64-.18,1.06-.44,1.08-.89a.89.89,0,0,0-.54-.81,3.52,3.52,0,0,0-1.26-.09,30.17,30.17,0,0,1-3.06-.16,21.79,21.79,0,0,1-3.69-.81c-1.79-.26-3.86-1.43-6.3-3.68-13.92-20.24-21.62-44.19-31-66.45-4.24-10-7.95-18.64-11.07-26s-5-12.08-5.76-13.8a26.6,26.6,0,0,0-2.25-4.49c-.52-.72-1-1-1.44-1s-1,.26-1.53,1.06a36.12,36.12,0,0,0-2.16,4.9l-33.21,82.2c2.56,1.29,5.22,2.6,7.83,3.92Zm-7.83-3.92C69.71,144,44.06,117.43,44.06,133.27c0,31.06,16.92,58.59,42.75,75.43Zm34-65c.43,0,.93.56,1.35,1.71l16,41.55c.1.31.25.62.18.81s-.4.24-.81.24H124.28c-.26,0-.51,0-.63-.16a1.08,1.08,0,0,1,.09-.9l14.85-41.55c.43-1.15.84-1.71,1.26-1.71h0Z"/></svg>