<svg id="Layer_1" data-name="Layer 1" xmlns="http://www.w3.org/2000/svg" xmlns:xlink="http://www.w3.org/1999/xlink" viewBox="0 0 330.65 108"><defs><style>.cls-1{fill:url(#radial-gradient);}.cls-2{fill:#151515;}.cls-3{fill:#fff;}</style><radialGradient id="radial-gradient" cx="1184.59" cy="-1676.17" r="119.69" gradientTransform="matrix(0.45, 0.05, 0.05, -0.35, -388.05, -595)" gradientUnits="userSpaceOnUse"><stop offset="0" stop-color="#d71f27"/><stop offset="1" stop-color="#951b1e"/></radialGradient></defs><title>Analytica_Logo_Artboard 6 copy 6_Vector</title><path id="path12830-0-9-5-3-5-1-12-0-4-3-8-97" class="cls-1" d="M53,22.32c49.05,72,13.23,59-11.52,43.59L34.85,81.2A38.61,38.61,0,0,0,53,85.68c19.88,0,36-14.61,36-32.64S72.91,22.32,53,22.32ZM41.52,65.91,44,59.64a.62.62,0,0,1,.6-.43H57.42a.63.63,0,0,1,.35.11.53.53,0,0,1,.16.23L63.5,72.89a1.42,1.42,0,0,1,.13,1,.67.67,0,0,1-.44.43,1,1,0,0,0-.35.14.31.31,0,0,0-.09.26c0,.15.17.25.47.29s.76.06,1.33.08c2.14.05,4.1.1,5.89.12s2.93,0,3.45,0a3,3,0,0,0,.85-.12c.23-.06.37-.15.38-.31a.31.31,0,0,0-.19-.29,1.24,1.24,0,0,0-.44,0,10.62,10.62,0,0,1-1.08-.06,7.67,7.67,0,0,1-1.3-.29,4.5,4.5,0,0,1-2.22-1.29C65,65.71,62.29,57.28,59,49.45c-1.49-3.53-2.8-6.56-3.9-9.17S53.31,36,53,35.42a9.36,9.36,0,0,0-.79-1.58c-.18-.25-.34-.37-.51-.35s-.36.09-.54.37a12.71,12.71,0,0,0-.76,1.72L38.76,64.53l2.76,1.38Zm-2.76-1.38C26,56.81,17,47.46,17,53c0,10.93,6,20.62,15,26.55Zm12-22.87c.15,0,.33.2.48.6l5.64,14.63c0,.11.09.22.06.29s-.14.08-.28.09H45.25c-.09,0-.18,0-.22-.06a.38.38,0,0,1,0-.32l5.23-14.63c.15-.41.29-.6.44-.6h0Z"/><rect class="cls-2" x="108.81" y="-0.02" width="114.04" height="108.04"/><path id="path12830-0-9-5-3-5-1-12-0-4-3-8-97-2" data-name="path12830-0-9-5-3-5-1-12-0-4-3-8-97" class="cls-3" d="M165.83,22.3c49.05,72,13.23,59-11.52,43.59l-6.66,15.29a38.61,38.61,0,0,0,18.18,4.48c19.88,0,36-14.61,36-32.64s-16.11-30.72-36-30.72ZM154.31,65.89l2.47-6.27a.62.62,0,0,1,.6-.43h12.83a.63.63,0,0,1,.35.11.53.53,0,0,1,.16.23l5.58,13.33a1.42,1.42,0,0,1,.13,1,.67.67,0,0,1-.44.43,1,1,0,0,0-.35.14.31.31,0,0,0-.09.26c0,.15.17.25.47.29s.76.06,1.33.08c2.14.05,4.1.1,5.89.12s2.93,0,3.45,0a3,3,0,0,0,.85-.12c.23-.06.37-.15.38-.31a.31.31,0,0,0-.19-.29,1.24,1.24,0,0,0-.44,0,10.62,10.62,0,0,1-1.08-.06,7.67,7.67,0,0,1-1.3-.29,4.5,4.5,0,0,1-2.22-1.29c-4.9-7.12-7.61-15.56-10.93-23.39-1.49-3.53-2.8-6.56-3.9-9.17s-1.77-4.25-2-4.86a9.36,9.36,0,0,0-.79-1.58c-.18-.25-.34-.37-.51-.35s-.36.09-.54.37a12.71,12.71,0,0,0-.76,1.72L151.56,64.51l2.76,1.38Zm-2.76-1.38C138.84,56.79,129.81,47.45,129.81,53c0,10.93,6,20.62,15,26.55Zm12-22.87c.15,0,.33.2.48.6l5.64,14.63c0,.11.09.22.06.29s-.14.08-.28.09H158.05c-.09,0-.18,0-.22-.06a.38.38,0,0,1,0-.32l5.23-14.63c.15-.41.29-.6.44-.6h0Z"/><path id="path12830-0-9-5-3-5-1-12-0-4-3-8-97-3" data-name="path12830-0-9-5-3-5-1-12-0-4-3-8-97" class="cls-2" d="M276.53,22.32c49.05,72,13.23,59-11.52,43.59L258.35,81.2a38.61,38.61,0,0,0,18.18,4.48c19.88,0,36-14.61,36-32.64s-16.11-30.72-36-30.72ZM265,65.91l2.47-6.27a.62.62,0,0,1,.6-.43h12.83a.63.63,0,0,1,.35.11.53.53,0,0,1,.16.23L287,72.89a1.42,1.42,0,0,1,.13,1,.67.67,0,0,1-.44.43,1,1,0,0,0-.35.14.31.31,0,0,0-.09.26c0,.15.17.25.47.29s.76.06,1.33.08c2.14.05,4.1.1,5.89.12s2.93,0,3.45,0a3,3,0,0,0,.85-.12c.23-.06.37-.15.38-.31a.31.31,0,0,0-.19-.29,1.24,1.24,0,0,0-.44,0,10.62,10.62,0,0,1-1.08-.06,7.67,7.67,0,0,1-1.3-.29,4.5,4.5,0,0,1-2.22-1.29c-4.9-7.12-7.61-15.56-10.93-23.39-1.49-3.53-2.8-6.56-3.9-9.17s-1.77-4.25-2-4.86a9.36,9.36,0,0,0-.79-1.58c-.18-.25-.34-.37-.51-.35s-.36.09-.54.37a12.71,12.71,0,0,0-.76,1.72L262.26,64.53,265,65.91Zm-2.76-1.38C249.54,56.81,240.51,47.46,240.51,53c0,10.93,6,20.62,15,26.55Zm12-22.87c.15,0,.33.2.48.6l5.64,14.63c0,.11.09.22.06.29s-.14.08-.28.09H268.75c-.09,0-.18,0-.22-.06a.38.38,0,0,1,0-.32l5.23-14.63c.15-.41.29-.6.44-.6h0Z"/></svg>