<svg id="Layer_1" data-name="Layer 1" xmlns="http://www.w3.org/2000/svg" xmlns:xlink="http://www.w3.org/1999/xlink" viewBox="0 0 1019 288"><defs><style>.cls-1{fill:#151515;}.cls-2{fill:url(#radial-gradient);}</style><radialGradient id="radial-gradient" cx="378.51" cy="144" r="77.07" gradientUnits="userSpaceOnUse"><stop offset="0" stop-color="#d71f27"/><stop offset="1" stop-color="#951b1e"/></radialGradient></defs><title>Analytica_Logo_Standard_Color_Vector</title><path id="path3383-2-6-1-1-1-5" class="cls-1" d="M485.49,134q0-14.11,0-19.32t.24-7.69a9.66,9.66,0,0,1,1.3-5,5.68,5.68,0,0,1,4.1-2.16q1.28-.19,2.54-.28t2-.09a1.5,1.5,0,0,0,.76-.19.64.64,0,0,0,.35-.56.79.79,0,0,0-.54-.78,4.53,4.53,0,0,0-1.68-.22q-3.59,0-8.77.19l-6.17.19-5.74-.19q-4.89-.16-9.89-.19a4.5,4.5,0,0,0-1.68.22.79.79,0,0,0-.54.78.64.64,0,0,0,.35.56,1.51,1.51,0,0,0,.76.19q1,0,2.4.09a17.65,17.65,0,0,1,2.3.28q3.34.62,4.58,2.3a8.62,8.62,0,0,1,1.36,4.83q.2,2.49.24,7.69t0,19.32v22q0,9.08-.09,16.1a108.74,108.74,0,0,1-.61,11,16.72,16.72,0,0,1-1.17,4.61,3.78,3.78,0,0,1-2.84,2.27c-.64.13-1.33.24-2.07.34a15.35,15.35,0,0,1-2.07.16,1.35,1.35,0,0,0-.86.24.64.64,0,0,0-.24.52.78.78,0,0,0,.54.77,4.32,4.32,0,0,0,1.68.22c1.06,0,2.29,0,3.68-.08s2.79-.11,4.2-.18,2.63,0,3.66-.06l2-.06q3,0,6.38.1t7.73.28l9.92.24q5.61.12,13,.14,5.26.06,6.74-.61a3.7,3.7,0,0,0,2-2.77,56.11,56.11,0,0,0,1.45-7.1q.6-4.07.63-5.41a4.32,4.32,0,0,0-.16-1.45.64.64,0,0,0-.67-.43,1,1,0,0,0-.88.45,2.93,2.93,0,0,0-.36,1.18,15.71,15.71,0,0,1-1.28,3.89,15.13,15.13,0,0,1-2.31,3.61,11.52,11.52,0,0,1-6.87,3.23,61.59,61.59,0,0,1-9.87.52,67.31,67.31,0,0,1-11.51-.69,9.74,9.74,0,0,1-5.08-2.19q-1.82-1.54-2.45-8.27t-.59-20.37Z"/><path id="path3385-6-1-7-3-2-3" class="cls-1" d="M559.87,170.88c0,1.07,0,2.76,0,5.06s-.16,4.79-.34,7.5a11.57,11.57,0,0,1-1.14,4.63,4.14,4.14,0,0,1-2.9,2.28c-.6.12-1.26.24-2,.34a14.82,14.82,0,0,1-2,.16,1.21,1.21,0,0,0-.81.24.65.65,0,0,0-.23.52.77.77,0,0,0,.51.78,4,4,0,0,0,1.58.22q3.31,0,7.62-.19l5.17-.19,5.58.19q4.82.16,10.47.19c1.42,0,2.11-.36,2.09-1a.66.66,0,0,0-.22-.52,1.19,1.19,0,0,0-.82-.24c-.65,0-1.54-.06-2.69-.16s-2.21-.22-3.18-.34a5.37,5.37,0,0,1-4-2.28,9.43,9.43,0,0,1-1.31-4.63c-.18-2.7-.3-5.2-.34-7.5s-.06-4,0-5.06v-10.8a50.94,50.94,0,0,1,.24-6.14,22.53,22.53,0,0,1,1.71-6.42q1.45-3.15,6.55-11.63T589.87,119q5.43-8.42,7.86-11.38a49.28,49.28,0,0,1,3.56-3.91,16.87,16.87,0,0,1,3.36-2.5,12.72,12.72,0,0,1,3.24-1.35,11.26,11.26,0,0,1,2.76-.41,2.48,2.48,0,0,0,1.24-.27.83.83,0,0,0,.46-.74q0-.37-.51-.56a3.32,3.32,0,0,0-1.19-.19q-2.35,0-7,.19l-5.7.19q-.9,0-3.43-.19t-5.19-.19a4.9,4.9,0,0,0-1.54.19c-.37.13-.55.31-.56.56a.83.83,0,0,0,.54.72,9,9,0,0,0,1.42.53,2.39,2.39,0,0,1,1.63,1.24,4.86,4.86,0,0,1,.46,2.28,9.13,9.13,0,0,1-.47,2.82,15.27,15.27,0,0,1-1.75,3.58q-1.56,2.49-6.23,10.24t-9.3,15.68q-4.63,7.93-6.14,11-1.49-2.35-6.81-11.09T550.06,118q-5.28-8.74-6.64-11.09a19,19,0,0,1-1.24-2.59,6.62,6.62,0,0,1-.46-2.31,2.09,2.09,0,0,1,.46-1.32,3.47,3.47,0,0,1,1.24-.94l1.42-.56c.35-.14.53-.33.54-.57a.69.69,0,0,0-.32-.63,2.65,2.65,0,0,0-1.38-.25c-2.63,0-5,.08-7,.19s-3.39.17-3.92.19l-5.77-.19q-4.78-.17-7.15-.19a2.69,2.69,0,0,0-1.29.25.72.72,0,0,0-.41.63.76.76,0,0,0,.41.68,1.84,1.84,0,0,0,.9.2,8.71,8.71,0,0,1,2.51.54,14.61,14.61,0,0,1,3.1,1.47,24.54,24.54,0,0,1,4.09,3.47,46.71,46.71,0,0,1,4.78,5.82q2.57,3.7,7.79,11.83t9.84,15.51q4.61,7.38,5.35,8.81a32.55,32.55,0,0,1,2.14,5.41,29.34,29.34,0,0,1,.86,7.77Z"/><path id="path3387-0-54-1-8-0-9" class="cls-1" d="M667.21,104.27l16.52.25q9.23.24,12.64,2.11t3.49,4.71l.13,1.37a4.93,4.93,0,0,0,.32,1.71.72.72,0,0,0,.72.4.76.76,0,0,0,.66-.39,2.37,2.37,0,0,0,.26-1.23q0-1.4.2-5.94t.2-7.71a3.93,3.93,0,0,0-.09-1,.55.55,0,0,0-.57-.47,8.51,8.51,0,0,0-1.3.22c-.6.13-1.4.27-2.38.4a36.17,36.17,0,0,1-3.86.45c-1.54.11-3.35.17-5.44.17H639.54c-.88,0-2.33-.06-4.34-.17s-4-.26-6-.45a12.79,12.79,0,0,1-3.86-.84,7.19,7.19,0,0,0-1.9-.65c-.27.05-.52.35-.76.9s-.42,1-.56,1.46q-.35,1.34-1.54,6.36t-1.34,6.55c0,.74.24,1.12.66,1.12a1,1,0,0,0,.7-.25,2.49,2.49,0,0,0,.61-1c.18-.41.42-.89.72-1.46s.81-1.36,1.51-2.39a7.6,7.6,0,0,1,4.42-3.05,35.4,35.4,0,0,1,9-.92l19.41-.25v52.5q0,9-.08,16c-.07,4.65-.26,8.29-.57,11a17.19,17.19,0,0,1-1.12,4.57,3.61,3.61,0,0,1-2.69,2.26c-.6.12-1.26.24-2,.33a13.72,13.72,0,0,1-2,.16,1.27,1.27,0,0,0-.82.23.65.65,0,0,0-.23.51.79.79,0,0,0,.51.78,4.26,4.26,0,0,0,1.59.22q3.33,0,7.66-.19l5.19-.19,5.61.19q4.84.16,10.52.19c1.42,0,2.12-.35,2.09-1a.65.65,0,0,0-.23-.51,1.22,1.22,0,0,0-.82-.23c-.65,0-1.55-.05-2.71-.16s-2.22-.21-3.19-.33a4.9,4.9,0,0,1-3.88-2.26,11.06,11.06,0,0,1-1.23-4.57c-.31-2.66-.5-6.3-.57-11s-.1-10-.08-16Z"/><path id="path3389-1-20-1-7-1-2" class="cls-1" d="M735.52,134.18q0-14.07,0-19.26t.23-7.67a10.42,10.42,0,0,1,1.19-5,5,5,0,0,1,3.63-2.15c.76-.13,1.39-.22,1.87-.28a11,11,0,0,1,1.39-.09,1.34,1.34,0,0,0,.72-.19.65.65,0,0,0,.33-.56.78.78,0,0,0-.5-.78,4.06,4.06,0,0,0-1.58-.22q-3.3,0-7.61.19L730,98.4l-5.22-.19q-4.37-.16-8-.19a4,4,0,0,0-1.58.22.79.79,0,0,0-.5.78.65.65,0,0,0,.33.56,1.36,1.36,0,0,0,.72.19,17.57,17.57,0,0,1,1.82.11,16.05,16.05,0,0,1,2.22.39,4.74,4.74,0,0,1,3.2,2.14,10.34,10.34,0,0,1,1.24,4.84q.18,2.48.23,7.67t0,19.26v21.94q0,9.05-.08,16.05t-.57,11a17.22,17.22,0,0,1-1.11,4.6,3.58,3.58,0,0,1-2.67,2.26c-.61.13-1.26.24-2,.34a15.75,15.75,0,0,1-2,.16,1.23,1.23,0,0,0-.82.24.66.66,0,0,0-.23.51.79.79,0,0,0,.51.78,4.05,4.05,0,0,0,1.57.22q3.31,0,7.61-.19l5.17-.19,5.57.19q4.82.16,10.46.19c1.42,0,2.11-.36,2.09-1a.65.65,0,0,0-.23-.51,1.22,1.22,0,0,0-.81-.24c-.64,0-1.54-.06-2.69-.16s-2.21-.21-3.18-.34a4.88,4.88,0,0,1-3.86-2.26,11.35,11.35,0,0,1-1.22-4.6q-.47-4-.57-11t-.08-16.05Z"/><path id="path3391-6-9-5-4-6-4" class="cls-1" d="M808.72,194.73a115.09,115.09,0,0,0,12.79-.69A45.08,45.08,0,0,0,832,191.85a6.59,6.59,0,0,0,2.26-1.3,6.09,6.09,0,0,0,1.09-2.34,84.68,84.68,0,0,0,1.91-9.28q.88-5.57.94-6.74a3.42,3.42,0,0,0-.21-1.32.75.75,0,0,0-.69-.56.9.9,0,0,0-.84.42,4.16,4.16,0,0,0-.45,1.46,27.65,27.65,0,0,1-1.52,5.07,17,17,0,0,1-3.26,5.45,19.83,19.83,0,0,1-9.54,5A55,55,0,0,1,808.72,189q-13.92-.2-24.37-6.57a45.93,45.93,0,0,1-22.25-39.27,59.32,59.32,0,0,1,2.28-17.85,33.5,33.5,0,0,1,9.35-14.84q3.21-3.37,10.1-6.17t19.6-3a55.75,55.75,0,0,1,15.48,2.16q6.83,2.07,10.35,5a14.42,14.42,0,0,1,4,5.59,18.89,18.89,0,0,1,1.45,7.18,6.69,6.69,0,0,0,.18,2,.82.82,0,0,0,.86.66.83.83,0,0,0,.82-.61,6.83,6.83,0,0,0,.34-2c.05-1.1.11-3,.14-5.6s.12-5.07.25-7.29.27-3.81.42-4.82.21-1.74.22-2.19a1.2,1.2,0,0,0-.3-.92,2.2,2.2,0,0,0-1.37-.46q-3.07-.2-6.3-.7T823.05,98a97,97,0,0,0-9.8-1.17q-5-.34-8.93-.33-14.79.13-24.25,3.88a43.29,43.29,0,0,0-15.14,9.52q-8.45,8.66-11.54,18.13t-2.92,16.06A55.13,55.13,0,0,0,753.58,163q3.32,9.81,12.51,18.16A50.51,50.51,0,0,0,784,191.3q10.33,3.41,24.75,3.43Z"/><path id="path3393-5-7-2-2-4-61" class="cls-1" d="M858.86,179a27.14,27.14,0,0,1-4.32,7.82,10.85,10.85,0,0,1-7.22,3.76c-.58.06-1.27.12-2,.17s-1.42.07-1.94.08a1.84,1.84,0,0,0-.89.19.62.62,0,0,0-.35.56.79.79,0,0,0,.64.77,6.34,6.34,0,0,0,2,.22q5.07,0,9.62-.19c3-.11,5-.17,5.92-.19s2.46.08,4.69.19,4.23.17,6,.19a4,4,0,0,0,1.5-.22.81.81,0,0,0,.57-.77c0-.5-.44-.74-1.38-.74h-1.37a7.27,7.27,0,0,1-3.49-.86,3.09,3.09,0,0,1-1.74-2.71,17.36,17.36,0,0,1,.5-3.81A31.15,31.15,0,0,1,867,179l8.25-21.82a1.42,1.42,0,0,1,1.37-1h29.55a1.41,1.41,0,0,1,.78.19,1.55,1.55,0,0,1,.46.56l12.78,30.32a3.16,3.16,0,0,1,.2,2.31,1.62,1.62,0,0,1-1,1,1.7,1.7,0,0,0-.69.29.68.68,0,0,0-.27.57c0,.35.37.57,1.08.66s1.73.16,3,.2q7.38.18,13.57.22t8,0a7,7,0,0,0,1.95-.22c.51-.15.79-.41.81-.77a.6.6,0,0,0-.37-.6,2.57,2.57,0,0,0-1-.14,20.56,20.56,0,0,1-2.49-.15,17.12,17.12,0,0,1-3-.59q-2.16-.32-5.13-3t-6.68-10.67q-3.27-7.33-8.25-18.86T909.75,134l-8.95-20.94q-3.79-8.89-4.69-11a22.51,22.51,0,0,0-1.82-3.65c-.42-.58-.82-.84-1.2-.79s-.78.24-1.2.88a26.57,26.57,0,0,0-1.82,3.93Zm19.25-27.24a.53.53,0,0,1-.47-.2c-.1-.14-.08-.36.05-.66l12.09-33.27c.69-1.85,1.38-1.85,2.06,0l13.06,33.27a1,1,0,0,1,0,.62c-.06.16-.26.24-.58.25Z"/><path id="path3396-5-2-6-7-6-1" class="cls-1" d="M89.05,179.05a27,27,0,0,1-4.36,7.82,11,11,0,0,1-7.26,3.76c-.59.06-1.28.12-2.06.16s-1.43.08-2,.08a1.82,1.82,0,0,0-.88.19.62.62,0,0,0-.36.55.78.78,0,0,0,.64.77,6.2,6.2,0,0,0,2,.22q5.1,0,9.68-.19t5.95-.19c.91,0,2.48.08,4.72.19s4.26.17,6.07.19a3.92,3.92,0,0,0,1.51-.22.79.79,0,0,0,.57-.77c0-.49-.44-.74-1.38-.74h-1.38A7.35,7.35,0,0,1,97,190a3.1,3.1,0,0,1-1.75-2.72,17.15,17.15,0,0,1,.5-3.8,31,31,0,0,1,1.44-4.45l8.3-21.82a1.43,1.43,0,0,1,1.38-1h29.73a1.39,1.39,0,0,1,.78.18,1.49,1.49,0,0,1,.47.56l12.86,30.31a3.14,3.14,0,0,1,.21,2.31,1.62,1.62,0,0,1-1,1,1.7,1.7,0,0,0-.69.29.69.69,0,0,0-.28.57c0,.35.37.58,1.09.66s1.74.15,3.06.2q7.43.18,13.66.22l8.05,0a6.82,6.82,0,0,0,2-.22c.52-.14.79-.4.81-.77a.59.59,0,0,0-.38-.59,2.48,2.48,0,0,0-1-.14,22.19,22.19,0,0,1-2.51-.14,17.89,17.89,0,0,1-3-.6q-2.18-.32-5.17-3t-6.72-10.67q-3.29-7.32-8.3-18.85T140.25,134l-9-20.93q-3.82-8.89-4.72-11a22.25,22.25,0,0,0-1.83-3.65q-.63-.87-1.21-.79c-.39-.05-.79.24-1.21.88a26.75,26.75,0,0,0-1.83,3.93Zm19.36-27.24a.52.52,0,0,1-.47-.2c-.09-.14-.08-.36.05-.66l12.17-33.28q1-2.77,2.07,0l13.14,33.28a1,1,0,0,1,0,.62c-.06.16-.25.24-.59.25Z"/><path id="path3398-4-6-1-9-1-1" class="cls-1" d="M200.59,116.66q3.66,3.68,13.69,13.58t22.4,21.82q7.55,7.23,15.54,14.65T266,179.41q5.8,5.28,6.78,6.1,5.34,4.77,7.38,6.39t2.71,1.5c.47.14.8-.3,1-1.33a58.43,58.43,0,0,0,.26-7.43l.28-72.3q-.11-5.46.85-7.94t4.27-3a15.17,15.17,0,0,1,2-.32,12.14,12.14,0,0,1,1.3,0,2.26,2.26,0,0,0,1.12-.25.72.72,0,0,0,.4-.62c0-.36-.23-.6-.67-.71a7.15,7.15,0,0,0-1.82-.16q-4.31,0-7.43.19t-4.32.18q-1.31,0-5.43-.18t-9-.19a8.8,8.8,0,0,0-2,.16c-.5.11-.75.35-.76.71a.83.83,0,0,0,.19.62,1.29,1.29,0,0,0,.92.25q.92,0,2.87.12a33.6,33.6,0,0,1,3.91.49,5.46,5.46,0,0,1,4.25,3.22q1.12,2.6,1.14,8.5L277.76,176q-3.7-3.46-13.12-12.73T244.57,143.8q-16.53-15.81-29.2-28t-14.78-14.31q-1.11-1.06-2.52-2.44a4.9,4.9,0,0,0-2.32-1.51c-.55,0-.94.38-1.18,1.27a22.27,22.27,0,0,0-.35,4.89l-.14,70.7q.06,8.26-.78,11.72c-.56,2.3-1.69,3.62-3.37,4a19.09,19.09,0,0,1-3.2.6c-1.06.1-1.88.15-2.47.14s-1.08.24-1.11.74a.8.8,0,0,0,.59.82,5.1,5.1,0,0,0,1.63.17q4.8,0,8.51-.19t4.77-.19q1,0,4.84.19t9.82.19a5.56,5.56,0,0,0,1.87-.22.79.79,0,0,0,.62-.77c0-.49-.39-.74-1.11-.74s-1.65,0-2.94-.14a30.08,30.08,0,0,1-4-.6,5.51,5.51,0,0,1-4-3.73q-1.23-3.14-1.4-10.58Z"/><path id="path12830-0-9-5-3-5-1-12-0-4-3-8-97" class="cls-2" d="M378.55,72C490,235.58,408.62,206.05,352.37,171.07l-15.15,34.74A87.75,87.75,0,0,0,378.55,216c45.18,0,81.78-33.2,81.78-74.19S423.72,72,378.55,72Zm-26.18,99.07L358,156.83a1.41,1.41,0,0,1,1.37-1h29.16a1.44,1.44,0,0,1,.79.26,1.2,1.2,0,0,1,.36.52l12.67,30.31a3.22,3.22,0,0,1,.29,2.28,1.52,1.52,0,0,1-1,1,2.23,2.23,0,0,0-.79.33.71.71,0,0,0-.22.59c0,.35.38.57,1.08.66s1.73.15,3,.19c4.86.12,9.31.24,13.39.26s6.65,0,7.85,0a6.85,6.85,0,0,0,1.94-.26c.51-.15.85-.35.86-.72a.71.71,0,0,0-.43-.65,2.81,2.81,0,0,0-1-.07,24.13,24.13,0,0,1-2.45-.13,17.43,17.43,0,0,1-3-.65c-1.43-.21-3.08-1.14-5-2.94-11.13-16.19-17.3-35.35-24.84-53.16-3.4-8-6.36-14.91-8.86-20.83s-4-9.66-4.61-11a21.28,21.28,0,0,0-1.8-3.59c-.41-.58-.77-.84-1.15-.78s-.81.21-1.22.85a28.89,28.89,0,0,0-1.73,3.92L346.1,167.93l6.26,3.14Zm-6.26-3.14c-28.9-17.54-49.42-38.79-49.42-26.12,0,24.85,13.53,46.87,34.2,60.34Zm27.21-52c.34,0,.74.45,1.08,1.37l12.81,33.24c.08.25.2.49.14.65s-.32.19-.65.19H360.86c-.21,0-.41,0-.5-.13a.86.86,0,0,1,.07-.72l11.88-33.24c.34-.92.67-1.37,1-1.37h0Z"/></svg>