<svg id="Layer_1" data-name="Layer 1" xmlns="http://www.w3.org/2000/svg" xmlns:xlink="http://www.w3.org/1999/xlink" viewBox="0 0 633.26 432"><defs><style>.cls-1{fill:url(#radial-gradient);}.cls-2{fill:#161616;}.cls-3{fill:#151515;}.cls-4{fill:#fff;}</style><radialGradient id="radial-gradient" cx="172.52" cy="-2195" r="371.18" gradientTransform="matrix(0.53, 0.06, 0.06, -0.41, 276.07, -761.53)" gradientUnits="userSpaceOnUse"><stop offset="0" stop-color="#d71f27"/><stop offset="1" stop-color="#951b1e"/></radialGradient></defs><title>Analytica_Logo_Artboard 2 copy 6_Vector</title><path id="path12830-0-9-5-3-5-1-12-0-4-3-8-97" class="cls-1" d="M206.57,68.59c181.28,266,48.9,218-42.57,161.1l-24.63,56.49a142.69,142.69,0,0,0,67.2,16.57c73.46,0,133-54,133-120.63S280,68.59,206.57,68.59ZM164,229.69l9.13-23.16a2.29,2.29,0,0,1,2.23-1.58h47.41a2.34,2.34,0,0,1,1.29.42,2,2,0,0,1,.58.85l20.6,49.28c.61,1.59.85,2.81.47,3.71a2.47,2.47,0,0,1-1.64,1.59,3.63,3.63,0,0,0-1.29.53,1.16,1.16,0,0,0-.35,1c0,.57.61.93,1.75,1.07s2.81.24,4.92.31c7.9.2,15.14.38,21.77.43s10.82,0,12.76,0a11.14,11.14,0,0,0,3.16-.43c.84-.24,1.38-.57,1.41-1.16a1.16,1.16,0,0,0-.7-1.06,4.57,4.57,0,0,0-1.64-.11,39.25,39.25,0,0,1-4-.21,28.35,28.35,0,0,1-4.8-1.06c-2.32-.34-5-1.86-8.2-4.78-18.1-26.33-28.13-57.49-40.39-86.44C223,155.79,218.17,144.6,214.1,135s-6.53-15.71-7.49-18a34.6,34.6,0,0,0-2.93-5.84c-.67-.94-1.26-1.36-1.87-1.28-.62-.09-1.32.34-2,1.38a47,47,0,0,0-2.81,6.37l-43.2,106.93c3.34,1.67,6.79,3.39,10.19,5.1Zm-10.19-5.1c-47-28.52-80.35-63.07-80.35-42.47,0,40.4,22,76.22,55.61,98.12Zm44.25-84.52c.55,0,1.21.73,1.76,2.23l20.83,54.05c.13.41.33.8.23,1.06s-.52.31-1,.32h-42c-.34,0-.67,0-.82-.21a1.4,1.4,0,0,1,.11-1.17l19.31-54.05c.56-1.5,1.09-2.23,1.64-2.23h0Z"/><path id="path3383-2-6-1-1-1-5" class="cls-2" d="M184.53,341.76q0-5.49,0-7.52t.1-3a3.69,3.69,0,0,1,.52-1.93,2.28,2.28,0,0,1,1.63-.84q.51-.07,1-.11l.81,0a.61.61,0,0,0,.3-.07.25.25,0,0,0,.14-.22.31.31,0,0,0-.21-.3,1.85,1.85,0,0,0-.67-.08q-1.43,0-3.5.07l-2.46.07-2.29-.07q-2-.06-3.94-.07a1.84,1.84,0,0,0-.67.08.31.31,0,0,0-.21.3.25.25,0,0,0,.14.22.61.61,0,0,0,.3.07q.4,0,1,0a7.21,7.21,0,0,1,.92.11,2.84,2.84,0,0,1,1.83.89,3.29,3.29,0,0,1,.54,1.88q.08,1,.1,3t0,7.52v8.56q0,3.53,0,6.26a41.28,41.28,0,0,1-.24,4.29,6.38,6.38,0,0,1-.47,1.79,1.5,1.5,0,0,1-1.13.88c-.25.05-.53.09-.83.13a6.27,6.27,0,0,1-.83.06.55.55,0,0,0-.34.09.25.25,0,0,0-.1.2.3.3,0,0,0,.21.3,1.76,1.76,0,0,0,.67.09l1.47,0,1.68-.07,1.46,0,.8,0q1.18,0,2.54,0l3.08.11,4,.09q2.24,0,5.2.05a8.16,8.16,0,0,0,2.69-.24,1.44,1.44,0,0,0,.79-1.08,21.36,21.36,0,0,0,.58-2.76,20.8,20.8,0,0,0,.25-2.1,1.64,1.64,0,0,0-.06-.56.26.26,0,0,0-.27-.17.39.39,0,0,0-.35.17,1.12,1.12,0,0,0-.15.46,6,6,0,0,1-.51,1.51,5.87,5.87,0,0,1-.92,1.41,4.64,4.64,0,0,1-2.74,1.26,25.17,25.17,0,0,1-3.94.2,27.5,27.5,0,0,1-4.59-.27,3.93,3.93,0,0,1-2-.85q-.73-.6-1-3.22t-.23-7.92Z"/><path id="path3385-6-1-7-3-2-3" class="cls-2" d="M214.19,356.13c0,.42,0,1.07,0,2S214.11,360,214,361a4.41,4.41,0,0,1-.45,1.8,1.65,1.65,0,0,1-1.16.89l-.78.13a6.06,6.06,0,0,1-.78.06.49.49,0,0,0-.32.09.25.25,0,0,0-.09.2.3.3,0,0,0,.2.3,1.62,1.62,0,0,0,.63.09q1.32,0,3-.07l2.06-.07,2.23.07q1.92.06,4.18.07c.56,0,.84-.14.83-.39a.25.25,0,0,0-.09-.2.48.48,0,0,0-.33-.09c-.26,0-.61,0-1.07-.06s-.88-.08-1.27-.13a2.15,2.15,0,0,1-1.61-.89,3.6,3.6,0,0,1-.52-1.8c-.07-1.05-.12-2-.14-2.92s0-1.55,0-2v-4.2a19.34,19.34,0,0,1,.1-2.39,8.6,8.6,0,0,1,.68-2.5q.58-1.22,2.61-4.53t4.2-6.58q2.16-3.28,3.13-4.43a19.36,19.36,0,0,1,1.42-1.52,6.72,6.72,0,0,1,1.34-1,5.14,5.14,0,0,1,1.29-.52,4.6,4.6,0,0,1,1.1-.16,1,1,0,0,0,.5-.1.32.32,0,0,0,.18-.29q0-.15-.2-.22a1.35,1.35,0,0,0-.48-.07q-.94,0-2.78.07l-2.27.07-1.37-.07q-1-.06-2.07-.07a2,2,0,0,0-.61.07c-.15,0-.22.12-.22.22a.32.32,0,0,0,.21.28,3.65,3.65,0,0,0,.57.21,1,1,0,0,1,.65.48,1.85,1.85,0,0,1,.18.89,3.47,3.47,0,0,1-.19,1.1,5.88,5.88,0,0,1-.7,1.39q-.62,1-2.48,4t-3.71,6.1q-1.85,3.09-2.45,4.28-.59-.92-2.71-4.32t-4.22-6.8q-2.1-3.4-2.65-4.32a7.3,7.3,0,0,1-.49-1,2.52,2.52,0,0,1-.18-.9.8.8,0,0,1,.18-.51,1.38,1.38,0,0,1,.49-.37l.57-.22c.14-.05.21-.13.22-.22a.27.27,0,0,0-.13-.24,1.08,1.08,0,0,0-.55-.1c-1,0-2,0-2.81.07l-1.56.07-2.3-.07q-1.91-.06-2.85-.07a1.09,1.09,0,0,0-.51.1.28.28,0,0,0-.16.24.3.3,0,0,0,.16.26.75.75,0,0,0,.36.08,3.55,3.55,0,0,1,1,.21,5.89,5.89,0,0,1,1.24.57,9.73,9.73,0,0,1,1.63,1.35,18.28,18.28,0,0,1,1.91,2.26q1,1.44,3.11,4.6t3.93,6q1.84,2.87,2.13,3.43a12.48,12.48,0,0,1,.85,2.11,11.15,11.15,0,0,1,.34,3Z"/><path id="path3387-0-54-1-8-0-9" class="cls-2" d="M257,330.21l6.59.1a12.6,12.6,0,0,1,5,.82A2.21,2.21,0,0,1,270,333l.05.53a1.88,1.88,0,0,0,.13.66.29.29,0,0,0,.29.16.3.3,0,0,0,.26-.15.91.91,0,0,0,.1-.48q0-.54.08-2.31t.08-3a1.49,1.49,0,0,0,0-.4.22.22,0,0,0-.23-.18,3.47,3.47,0,0,0-.52.09c-.24.05-.56.1-.95.16a14.77,14.77,0,0,1-1.54.17c-.61,0-1.34.07-2.17.07H246c-.35,0-.93,0-1.73-.07s-1.6-.1-2.4-.17a5.21,5.21,0,0,1-1.54-.33,2.92,2.92,0,0,0-.76-.25c-.11,0-.21.14-.3.35s-.17.4-.22.57q-.14.52-.61,2.47a25.66,25.66,0,0,0-.54,2.55c0,.29.1.44.26.43a.4.4,0,0,0,.28-.1,1,1,0,0,0,.24-.39c.07-.16.17-.35.29-.57s.32-.53.6-.93a3,3,0,0,1,1.76-1.19,14.46,14.46,0,0,1,3.57-.36l7.74-.1v20.43q0,3.5,0,6.21c0,1.81-.1,3.23-.23,4.26a6.55,6.55,0,0,1-.45,1.78,1.43,1.43,0,0,1-1.07.88l-.78.13a5.6,5.6,0,0,1-.78.06.52.52,0,0,0-.33.09.25.25,0,0,0-.09.2.31.31,0,0,0,.2.3,1.74,1.74,0,0,0,.63.08q1.33,0,3.05-.07l2.07-.07,2.24.07q1.93.06,4.2.07c.57,0,.85-.14.84-.39a.25.25,0,0,0-.09-.2.5.5,0,0,0-.33-.09c-.26,0-.62,0-1.08-.06l-1.27-.13a2,2,0,0,1-1.55-.88,4.22,4.22,0,0,1-.49-1.78c-.12-1-.2-2.45-.23-4.26s0-3.88,0-6.21Z"/><path id="path3389-1-20-1-7-1-2" class="cls-2" d="M284.24,341.85q0-5.48,0-7.49t.09-3a4,4,0,0,1,.48-1.93,2,2,0,0,1,1.45-.84l.75-.11a4.5,4.5,0,0,1,.55,0,.55.55,0,0,0,.29-.07.25.25,0,0,0,.13-.22.31.31,0,0,0-.2-.3,1.65,1.65,0,0,0-.63-.08q-1.32,0-3,.07l-2.06.07-2.08-.07q-1.74-.06-3.17-.07a1.64,1.64,0,0,0-.63.08.31.31,0,0,0-.2.3.25.25,0,0,0,.13.22.55.55,0,0,0,.29.07,7.18,7.18,0,0,1,.73,0,6.55,6.55,0,0,1,.88.15,1.89,1.89,0,0,1,1.27.83,4,4,0,0,1,.49,1.88q.07,1,.09,3t0,7.49v8.54q0,3.52,0,6.24t-.23,4.28a6.56,6.56,0,0,1-.44,1.79,1.42,1.42,0,0,1-1.06.88l-.78.13a6.44,6.44,0,0,1-.78.06.5.5,0,0,0-.33.09.25.25,0,0,0-.09.2.31.31,0,0,0,.2.3,1.65,1.65,0,0,0,.63.08q1.32,0,3-.07l2.06-.07,2.22.07q1.92.06,4.17.07c.56,0,.84-.14.83-.39a.25.25,0,0,0-.09-.2.49.49,0,0,0-.33-.09c-.26,0-.61,0-1.07-.06s-.88-.08-1.27-.13a2,2,0,0,1-1.54-.88,4.33,4.33,0,0,1-.49-1.79q-.19-1.56-.23-4.28t0-6.24Z"/><path id="path3391-6-9-5-4-6-4" class="cls-2" d="M313.43,365.41a47,47,0,0,0,5.1-.27,18.37,18.37,0,0,0,4.17-.85,2.64,2.64,0,0,0,.9-.5,2.34,2.34,0,0,0,.44-.91,32.24,32.24,0,0,0,.76-3.61q.35-2.17.37-2.62a1.3,1.3,0,0,0-.08-.51.3.3,0,0,0-.27-.22.36.36,0,0,0-.34.16,1.59,1.59,0,0,0-.18.57,10.56,10.56,0,0,1-.61,2,6.6,6.6,0,0,1-1.3,2.12,8,8,0,0,1-3.8,2,22.47,22.47,0,0,1-5.16.47,19.17,19.17,0,0,1-9.72-2.56,18,18,0,0,1-6.5-6.52,17.49,17.49,0,0,1-2.37-8.76,22.55,22.55,0,0,1,.91-6.94,13,13,0,0,1,3.73-5.77,11.67,11.67,0,0,1,4-2.4,25.13,25.13,0,0,1,14-.32,12.06,12.06,0,0,1,4.13,1.94,5.62,5.62,0,0,1,1.58,2.18,7.19,7.19,0,0,1,.58,2.79,2.54,2.54,0,0,0,.07.77.33.33,0,0,0,.34.25.33.33,0,0,0,.33-.24,2.6,2.6,0,0,0,.14-.79c0-.43,0-1.15.06-2.18s0-2,.1-2.84.11-1.48.17-1.88a8.51,8.51,0,0,0,.09-.85.46.46,0,0,0-.12-.36.89.89,0,0,0-.55-.18q-1.22-.08-2.51-.27t-2.74-.46q-1.93-.32-3.91-.46t-3.56-.13a27.84,27.84,0,0,0-9.67,1.51,17.33,17.33,0,0,0-6,3.7,18.31,18.31,0,0,0-4.6,7.05,18.71,18.71,0,0,0-1.17,6.25,21,21,0,0,0,1.24,7.36,17,17,0,0,0,5,7.07,20.28,20.28,0,0,0,7.13,3.93,32.42,32.42,0,0,0,9.87,1.33Z"/><path id="path3393-5-7-2-2-4-61" class="cls-2" d="M333.43,359.31a10.49,10.49,0,0,1-1.72,3,4.36,4.36,0,0,1-2.88,1.46l-.82.07-.77,0a.75.75,0,0,0-.35.07.24.24,0,0,0-.14.22c0,.14.08.24.25.3a2.59,2.59,0,0,0,.79.08q2,0,3.84-.07l2.36-.07,1.87.07c.89,0,1.69.06,2.4.07a1.65,1.65,0,0,0,.6-.08.31.31,0,0,0,.23-.3c0-.19-.17-.29-.55-.29H338a3,3,0,0,1-1.39-.34,1.2,1.2,0,0,1-.69-1.05,6.6,6.6,0,0,1,.2-1.48,11.91,11.91,0,0,1,.57-1.73l3.29-8.49a.56.56,0,0,1,.55-.38h11.78a.57.57,0,0,1,.31.07.61.61,0,0,1,.18.22l5.1,11.79a1.2,1.2,0,0,1,.08.9.64.64,0,0,1-.41.4.68.68,0,0,0-.27.11.26.26,0,0,0-.11.22c0,.14.15.22.43.26s.69.06,1.21.08q2.94.07,5.41.08h3.19a2.85,2.85,0,0,0,.78-.08c.21-.06.31-.16.32-.3a.23.23,0,0,0-.15-.23,1,1,0,0,0-.4-.05,8.4,8.4,0,0,1-1-.06,7,7,0,0,1-1.2-.23,4.29,4.29,0,0,1-2-1.17,13.68,13.68,0,0,1-2.67-4.15q-1.31-2.85-3.29-7.34t-4-9.17l-3.57-8.15-1.87-4.26a8.68,8.68,0,0,0-.73-1.42c-.17-.23-.33-.33-.48-.31s-.31.09-.48.34a10.22,10.22,0,0,0-.72,1.53Zm7.68-10.6a.21.21,0,0,1-.19-.08c0-.05,0-.14,0-.26l4.82-12.95c.28-.72.55-.72.82,0l5.21,12.95a.37.37,0,0,1,0,.24c0,.06-.1.09-.23.1Z"/><path id="path3396-5-2-6-7-6-1" class="cls-2" d="M51.24,359.31a10.45,10.45,0,0,1-1.74,3,4.4,4.4,0,0,1-2.9,1.46l-.82.06-.78,0a.74.74,0,0,0-.35.07.24.24,0,0,0-.15.21c0,.14.08.24.25.3a2.53,2.53,0,0,0,.79.09q2,0,3.86-.07l2.37-.07,1.88.07q1.34.06,2.42.07a1.6,1.6,0,0,0,.6-.09.31.31,0,0,0,.23-.3c0-.19-.18-.29-.55-.29h-.55a3,3,0,0,1-1.4-.34,1.2,1.2,0,0,1-.7-1.06,6.52,6.52,0,0,1,.2-1.48,11.85,11.85,0,0,1,.57-1.73l3.31-8.49a.57.57,0,0,1,.55-.38H70.21a.57.57,0,0,1,.31.07.58.58,0,0,1,.19.22l5.13,11.79a1.19,1.19,0,0,1,.08.9.64.64,0,0,1-.41.4.69.69,0,0,0-.28.11.27.27,0,0,0-.11.22c0,.14.15.22.43.26s.69.06,1.22.08q3,.07,5.45.08h3.21a2.79,2.79,0,0,0,.78-.09c.21-.05.32-.15.32-.3a.23.23,0,0,0-.15-.23,1,1,0,0,0-.4-.05,9.07,9.07,0,0,1-1-.05,7.29,7.29,0,0,1-1.21-.23,4.32,4.32,0,0,1-2.06-1.17A13.66,13.66,0,0,1,79,358.3q-1.31-2.85-3.31-7.33t-4.07-9.17l-3.59-8.14q-1.52-3.46-1.88-4.26a8.58,8.58,0,0,0-.73-1.42q-.25-.34-.48-.31c-.15,0-.31.09-.48.34a10.3,10.3,0,0,0-.73,1.53ZM59,348.71a.21.21,0,0,1-.19-.08c0-.05,0-.14,0-.26l4.85-12.95q.41-1.08.83,0l5.24,12.95a.37.37,0,0,1,0,.24c0,.06-.1.09-.23.1Z"/><path id="path3398-4-6-1-9-1-1" class="cls-2" d="M95.72,335q1.46,1.43,5.46,5.28t8.93,8.49q3,2.81,6.2,5.7t5.5,4.94q2.31,2.06,2.7,2.37,2.13,1.86,2.94,2.49t1.08.58c.19.05.32-.12.39-.52a22.18,22.18,0,0,0,.1-2.89l.11-28.13a8.61,8.61,0,0,1,.34-3.09,2,2,0,0,1,1.7-1.18A6.19,6.19,0,0,1,132,329l.52,0a.92.92,0,0,0,.45-.1.28.28,0,0,0,.16-.24c0-.14-.09-.23-.27-.28a2.92,2.92,0,0,0-.72-.06q-1.72,0-3,.07l-1.72.07-2.16-.07q-1.64-.07-3.57-.07a3.6,3.6,0,0,0-.8.06c-.2,0-.3.13-.3.28a.32.32,0,0,0,.08.24.52.52,0,0,0,.37.1q.37,0,1.14,0a13.72,13.72,0,0,1,1.56.19,2.17,2.17,0,0,1,1.7,1.25,9,9,0,0,1,.46,3.31l.61,24.38q-1.47-1.35-5.23-5t-8-7.57q-6.59-6.15-11.64-10.9t-5.89-5.57l-1-.95a2,2,0,0,0-.92-.59c-.22,0-.37.15-.47.5a8.46,8.46,0,0,0-.14,1.9l-.06,27.5a20.62,20.62,0,0,1-.31,4.56c-.22.9-.67,1.41-1.34,1.54a7.78,7.78,0,0,1-1.28.23c-.42,0-.75.06-1,.05s-.43.09-.44.29a.31.31,0,0,0,.23.32,2.08,2.08,0,0,0,.65.07q1.91,0,3.39-.07l1.9-.07,1.93.07q1.53.06,3.92.07a2.27,2.27,0,0,0,.74-.09.31.31,0,0,0,.25-.3c0-.19-.16-.29-.44-.29s-.66,0-1.17-.05a12.28,12.28,0,0,1-1.59-.23A2.18,2.18,0,0,1,97,362.14a13,13,0,0,1-.56-4.12Z"/><path id="path3396-5-2-6-7-6-1-2" data-name="path3396-5-2-6-7-6-1" class="cls-2" d="M138.37,359.31a10.45,10.45,0,0,1-1.74,3,4.4,4.4,0,0,1-2.9,1.46l-.82.06-.78,0a.74.74,0,0,0-.35.07.24.24,0,0,0-.15.21c0,.14.08.24.25.3a2.53,2.53,0,0,0,.79.09q2,0,3.86-.07l2.37-.07,1.88.07q1.34.06,2.42.07a1.6,1.6,0,0,0,.6-.09.31.31,0,0,0,.23-.3c0-.19-.18-.29-.55-.29H143a3,3,0,0,1-1.4-.34,1.2,1.2,0,0,1-.7-1.06,6.52,6.52,0,0,1,.2-1.48,11.84,11.84,0,0,1,.57-1.73l3.31-8.49a.57.57,0,0,1,.55-.38h11.86a.57.57,0,0,1,.31.07.58.58,0,0,1,.19.22L163,362.52a1.19,1.19,0,0,1,.08.9.64.64,0,0,1-.41.4.69.69,0,0,0-.28.11.27.27,0,0,0-.11.22c0,.14.15.22.43.26s.69.06,1.22.08q3,.07,5.45.08h3.21a2.79,2.79,0,0,0,.78-.09c.21-.05.32-.15.32-.3a.23.23,0,0,0-.15-.23,1,1,0,0,0-.4-.05,9.07,9.07,0,0,1-1-.05,7.29,7.29,0,0,1-1.21-.23,4.32,4.32,0,0,1-2.06-1.17,13.66,13.66,0,0,1-2.68-4.15q-1.31-2.85-3.31-7.33t-4.07-9.17l-3.59-8.14q-1.52-3.46-1.88-4.26a8.58,8.58,0,0,0-.73-1.42q-.25-.34-.48-.31c-.15,0-.31.09-.48.34a10.3,10.3,0,0,0-.73,1.53Zm7.72-10.6a.21.21,0,0,1-.19-.08c0-.05,0-.14,0-.26l4.85-12.95q.41-1.08.83,0l5.24,12.95a.37.37,0,0,1,0,.24c0,.06-.1.09-.23.1Z"/><rect class="cls-3" x="418" y="217.66" width="216" height="216"/><path id="path12830-0-9-5-3-5-1-12-0-4-3-8-97-2" data-name="path12830-0-9-5-3-5-1-12-0-4-3-8-97" class="cls-4" d="M526,251.46c90.64,133,24.45,109-21.28,80.55l-12.32,28.25a71.35,71.35,0,0,0,33.6,8.28c36.73,0,66.49-27,66.49-60.32S562.76,251.46,526,251.46ZM504.75,332l4.56-11.58a1.14,1.14,0,0,1,1.11-.79h23.7a1.17,1.17,0,0,1,.64.21,1,1,0,0,1,.29.43l10.3,24.64a2.62,2.62,0,0,1,.23,1.86,1.24,1.24,0,0,1-.82.8,1.81,1.81,0,0,0-.64.27.58.58,0,0,0-.18.48c0,.29.31.46.88.54s1.4.12,2.46.16c4,.1,7.57.19,10.89.21s5.41,0,6.38,0a5.57,5.57,0,0,0,1.58-.21c.42-.12.69-.29.7-.58a.58.58,0,0,0-.35-.53,2.29,2.29,0,0,0-.82-.06,19.62,19.62,0,0,1-2-.1,14.17,14.17,0,0,1-2.4-.53,8.32,8.32,0,0,1-4.1-2.39c-9.05-13.16-14.06-28.74-20.19-43.22-2.76-6.53-5.17-12.12-7.2-16.94s-3.26-7.86-3.74-9a17.3,17.3,0,0,0-1.46-2.92c-.34-.47-.63-.68-.94-.64s-.66.17-1,.69a23.49,23.49,0,0,0-1.4,3.19l-21.6,53.47,5.09,2.55Zm-5.09-2.55c-23.5-14.26-40.18-31.54-40.18-21.24,0,20.2,11,38.11,27.8,49.06Zm22.13-42.26c.28,0,.6.36.88,1.11l10.42,27c.07.2.16.4.12.53s-.26.16-.52.16h-21c-.17,0-.33,0-.41-.11a.7.7,0,0,1,.06-.58l9.66-27c.28-.75.54-1.11.82-1.11h0Z"/><path id="path3383-2-6-1-1-1-5-2" data-name="path3383-2-6-1-1-1-5" class="cls-4" d="M515,388q0-2.75,0-3.76t0-1.5a1.84,1.84,0,0,1,.26-1,1.14,1.14,0,0,1,.82-.42l.51-.05.4,0a.3.3,0,0,0,.15,0,.12.12,0,0,0,.07-.11.15.15,0,0,0-.11-.15.92.92,0,0,0-.33,0l-1.75,0-1.23,0-1.14,0-2,0a.92.92,0,0,0-.33,0,.15.15,0,0,0-.11.15.12.12,0,0,0,.07.11.31.31,0,0,0,.15,0l.48,0a3.6,3.6,0,0,1,.46.05,1.42,1.42,0,0,1,.91.45,1.65,1.65,0,0,1,.27.94q0,.48,0,1.5t0,3.76v4.28q0,1.77,0,3.13a20.64,20.64,0,0,1-.12,2.15,3.19,3.19,0,0,1-.23.9.75.75,0,0,1-.57.44l-.41.07-.41,0a.27.27,0,0,0-.17,0,.12.12,0,0,0,0,.1.15.15,0,0,0,.11.15.88.88,0,0,0,.33,0h.73l.84,0h1.13l1.27,0,1.54.05,2,0,2.6,0a4.08,4.08,0,0,0,1.34-.12.72.72,0,0,0,.39-.54,10.68,10.68,0,0,0,.29-1.38,10.4,10.4,0,0,0,.12-1.05.82.82,0,0,0,0-.28.13.13,0,0,0-.13-.08.2.2,0,0,0-.18.09.56.56,0,0,0-.07.23,3,3,0,0,1-.25.76,2.93,2.93,0,0,1-.46.7,2.32,2.32,0,0,1-1.37.63,12.59,12.59,0,0,1-2,.1,13.75,13.75,0,0,1-2.3-.13,2,2,0,0,1-1-.43,2.6,2.6,0,0,1-.49-1.61q-.13-1.31-.12-4Z"/><path id="path3385-6-1-7-3-2-3-2" data-name="path3385-6-1-7-3-2-3" class="cls-4" d="M529.84,395.22c0,.21,0,.54,0,1s0,.93-.07,1.46a2.21,2.21,0,0,1-.23.9.82.82,0,0,1-.58.44l-.39.07-.39,0a.24.24,0,0,0-.16,0,.12.12,0,0,0,0,.1.15.15,0,0,0,.1.15.81.81,0,0,0,.32,0l1.52,0,1,0,1.11,0q1,0,2.09,0c.28,0,.42-.07.42-.2a.13.13,0,0,0,0-.1.24.24,0,0,0-.16,0l-.54,0-.63-.07a1.08,1.08,0,0,1-.81-.44,1.8,1.8,0,0,1-.26-.9c0-.53-.06-1-.07-1.46s0-.77,0-1v-2.1a9.67,9.67,0,0,1,0-1.19,4.3,4.3,0,0,1,.34-1.25q.29-.61,1.31-2.26t2.1-3.29q1.08-1.64,1.57-2.21a9.68,9.68,0,0,1,.71-.76,3.36,3.36,0,0,1,.67-.49,2.57,2.57,0,0,1,.65-.26,2.3,2.3,0,0,1,.55-.08.51.51,0,0,0,.25-.05.16.16,0,0,0,.09-.14s0-.08-.1-.11a.68.68,0,0,0-.24,0l-1.39,0-1.14,0-.68,0-1,0a1,1,0,0,0-.31,0c-.07,0-.11.06-.11.11a.16.16,0,0,0,.11.14l.28.1a.47.47,0,0,1,.33.24.93.93,0,0,1,.09.44,1.74,1.74,0,0,1-.09.55,2.94,2.94,0,0,1-.35.7q-.31.48-1.24,2t-1.85,3q-.92,1.54-1.22,2.14-.3-.46-1.36-2.16l-2.11-3.4q-1.05-1.7-1.32-2.16a3.65,3.65,0,0,1-.25-.5,1.26,1.26,0,0,1-.09-.45.4.4,0,0,1,.09-.26.69.69,0,0,1,.25-.18l.28-.11c.07,0,.11-.06.11-.11a.13.13,0,0,0-.06-.12.54.54,0,0,0-.28,0c-.52,0-1,0-1.41,0l-.78,0-1.15,0-1.43,0a.55.55,0,0,0-.26,0,.14.14,0,0,0-.08.12.15.15,0,0,0,.08.13.37.37,0,0,0,.18,0,1.77,1.77,0,0,1,.5.1,3,3,0,0,1,.62.29,4.87,4.87,0,0,1,.82.67,9.14,9.14,0,0,1,1,1.13q.51.72,1.55,2.3t2,3q.92,1.44,1.07,1.71a6.24,6.24,0,0,1,.43,1.05,5.58,5.58,0,0,1,.17,1.51Z"/><path id="path3387-0-54-1-8-0-9-2" data-name="path3387-0-54-1-8-0-9" class="cls-4" d="M551.25,382.27l3.29,0a6.3,6.3,0,0,1,2.52.41,1.1,1.1,0,0,1,.7.92l0,.27a.94.94,0,0,0,.06.33.14.14,0,0,0,.14.08.15.15,0,0,0,.13-.08.45.45,0,0,0,.05-.24q0-.27,0-1.16t0-1.5a.75.75,0,0,0,0-.2.11.11,0,0,0-.11-.09l-.26,0-.47.08a7.38,7.38,0,0,1-.77.09c-.31,0-.67,0-1.09,0h-9.8l-.87,0-1.2-.09a2.61,2.61,0,0,1-.77-.16,1.46,1.46,0,0,0-.38-.13c-.05,0-.1.07-.15.18s-.08.2-.11.28-.15.59-.31,1.24a12.83,12.83,0,0,0-.27,1.27c0,.14,0,.22.13.22a.2.2,0,0,0,.14,0,.48.48,0,0,0,.12-.19l.14-.28c.06-.11.16-.26.3-.47a1.52,1.52,0,0,1,.88-.59,7.23,7.23,0,0,1,1.79-.18l3.87,0v10.21q0,1.75,0,3.11c0,.9-.05,1.61-.11,2.13a3.28,3.28,0,0,1-.22.89.72.72,0,0,1-.54.44l-.39.06a2.8,2.8,0,0,1-.39,0,.26.26,0,0,0-.16,0,.13.13,0,0,0,0,.1.15.15,0,0,0,.1.15.87.87,0,0,0,.32,0l1.53,0,1,0,1.12,0q1,0,2.1,0c.28,0,.42-.07.42-.19a.13.13,0,0,0,0-.1.25.25,0,0,0-.16,0l-.54,0-.64-.06a1,1,0,0,1-.77-.44,2.11,2.11,0,0,1-.25-.89c-.06-.52-.1-1.23-.11-2.13s0-1.94,0-3.11Z"/><path id="path3389-1-20-1-7-1-2-2" data-name="path3389-1-20-1-7-1-2" class="cls-4" d="M564.87,388.08q0-2.74,0-3.75t0-1.49a2,2,0,0,1,.24-1,1,1,0,0,1,.72-.42l.37-.05.28,0a.27.27,0,0,0,.14,0,.13.13,0,0,0,.07-.11.15.15,0,0,0-.1-.15.83.83,0,0,0-.32,0l-1.52,0-1,0-1,0-1.59,0a.82.82,0,0,0-.32,0,.15.15,0,0,0-.1.15.13.13,0,0,0,.06.11.28.28,0,0,0,.14,0l.36,0a3.27,3.27,0,0,1,.44.08,1,1,0,0,1,.64.42,2,2,0,0,1,.25.94q0,.48,0,1.49t0,3.75v4.27q0,1.76,0,3.12t-.11,2.14a3.28,3.28,0,0,1-.22.9.71.71,0,0,1-.53.44l-.39.07-.39,0a.25.25,0,0,0-.16,0,.13.13,0,0,0,0,.1.15.15,0,0,0,.1.15.83.83,0,0,0,.31,0l1.52,0,1,0,1.11,0q1,0,2.09,0c.28,0,.42-.07.42-.19a.12.12,0,0,0,0-.1.25.25,0,0,0-.16,0l-.54,0-.63-.07a1,1,0,0,1-.77-.44,2.17,2.17,0,0,1-.24-.9q-.09-.78-.11-2.14t0-3.12Z"/><path id="path3391-6-9-5-4-6-4-2" data-name="path3391-6-9-5-4-6-4" class="cls-4" d="M579.46,399.86a23.52,23.52,0,0,0,2.55-.13,9.18,9.18,0,0,0,2.09-.43,1.32,1.32,0,0,0,.45-.25,1.17,1.17,0,0,0,.22-.46,16.12,16.12,0,0,0,.38-1.8q.17-1.08.19-1.31a.65.65,0,0,0,0-.26.15.15,0,0,0-.14-.11.18.18,0,0,0-.17.08.8.8,0,0,0-.09.28,5.28,5.28,0,0,1-.3,1,3.3,3.3,0,0,1-.65,1.06,4,4,0,0,1-1.9,1,11.24,11.24,0,0,1-2.58.24,9.59,9.59,0,0,1-4.86-1.28,9,9,0,0,1-3.25-3.26,8.74,8.74,0,0,1-1.19-4.38,11.27,11.27,0,0,1,.45-3.47,6.5,6.5,0,0,1,1.86-2.89,5.83,5.83,0,0,1,2-1.2,12.56,12.56,0,0,1,7-.16,6,6,0,0,1,2.06,1,2.81,2.81,0,0,1,.79,1.09,3.6,3.6,0,0,1,.29,1.4,1.27,1.27,0,0,0,0,.38.16.16,0,0,0,.17.13A.17.17,0,0,0,585,386a1.3,1.3,0,0,0,.07-.39c0-.21,0-.58,0-1.09s0-1,0-1.42.05-.74.08-.94a4.26,4.26,0,0,0,0-.43.23.23,0,0,0-.06-.18.45.45,0,0,0-.27-.09q-.61,0-1.26-.14l-1.37-.23q-1-.16-2-.23t-1.78-.06a13.92,13.92,0,0,0-4.83.76,8.66,8.66,0,0,0-3,1.85,9.16,9.16,0,0,0-2.3,3.53,9.35,9.35,0,0,0-.58,3.12,10.49,10.49,0,0,0,.62,3.68,8.47,8.47,0,0,0,2.49,3.53,10.14,10.14,0,0,0,3.56,2,16.21,16.21,0,0,0,4.93.67Z"/><path id="path3393-5-7-2-2-4-61-2" data-name="path3393-5-7-2-2-4-61" class="cls-4" d="M589.46,396.81a5.24,5.24,0,0,1-.86,1.52,2.18,2.18,0,0,1-1.44.73l-.41,0h-.39a.37.37,0,0,0-.18,0,.12.12,0,0,0-.07.11c0,.07,0,.12.13.15a1.29,1.29,0,0,0,.39,0l1.92,0,1.18,0,.93,0,1.2,0a.82.82,0,0,0,.3,0,.16.16,0,0,0,.11-.15c0-.1-.09-.14-.28-.14h-.27a1.48,1.48,0,0,1-.7-.17.6.6,0,0,1-.35-.53,3.3,3.3,0,0,1,.1-.74,6,6,0,0,1,.29-.87l1.64-4.24a.28.28,0,0,1,.27-.19h5.89a.29.29,0,0,1,.15,0,.3.3,0,0,1,.09.11l2.55,5.9a.6.6,0,0,1,0,.45.32.32,0,0,1-.21.2.34.34,0,0,0-.14.06.13.13,0,0,0-.05.11c0,.07.07.11.22.13l.61,0,2.71,0h1.6a1.43,1.43,0,0,0,.39,0c.1,0,.16-.08.16-.15a.12.12,0,0,0-.07-.12.52.52,0,0,0-.2,0,4.2,4.2,0,0,1-.5,0,3.49,3.49,0,0,1-.6-.12,2.15,2.15,0,0,1-1-.58,6.84,6.84,0,0,1-1.33-2.08q-.65-1.43-1.65-3.67l-2-4.59L597.82,384l-.93-2.13a4.34,4.34,0,0,0-.36-.71c-.08-.11-.16-.16-.24-.15s-.16,0-.24.17a5.11,5.11,0,0,0-.36.76Zm3.84-5.3a.11.11,0,0,1-.09,0s0-.07,0-.13l2.41-6.47c.14-.36.27-.36.41,0l2.6,6.47a.19.19,0,0,1,0,.12s-.05,0-.12,0Z"/><path id="path3396-5-2-6-7-6-1-3" data-name="path3396-5-2-6-7-6-1" class="cls-4" d="M448.36,396.81a5.22,5.22,0,0,1-.87,1.52,2.2,2.2,0,0,1-1.45.73l-.41,0-.39,0a.37.37,0,0,0-.18,0,.12.12,0,0,0-.07.11c0,.07,0,.12.13.15a1.26,1.26,0,0,0,.4,0l1.93,0,1.19,0,.94,0,1.21,0a.8.8,0,0,0,.3,0,.15.15,0,0,0,.11-.15c0-.1-.09-.14-.28-.14h-.28a1.49,1.49,0,0,1-.7-.17.6.6,0,0,1-.35-.53,3.26,3.26,0,0,1,.1-.74,5.92,5.92,0,0,1,.29-.87l1.65-4.24a.28.28,0,0,1,.28-.19h5.93a.28.28,0,0,1,.15,0,.29.29,0,0,1,.09.11l2.56,5.9a.6.6,0,0,1,0,.45.32.32,0,0,1-.21.2.34.34,0,0,0-.14.06.13.13,0,0,0-.06.11c0,.07.07.11.22.13l.61,0,2.72,0h1.61a1.39,1.39,0,0,0,.39,0c.1,0,.16-.08.16-.15a.11.11,0,0,0-.08-.12.51.51,0,0,0-.2,0l-.5,0a3.65,3.65,0,0,1-.6-.12,2.16,2.16,0,0,1-1-.58,6.83,6.83,0,0,1-1.34-2.08q-.66-1.42-1.66-3.67l-2-4.59-1.8-4.07-.94-2.13a4.29,4.29,0,0,0-.37-.71q-.13-.17-.24-.15c-.08,0-.16,0-.24.17a5.15,5.15,0,0,0-.37.76Zm3.86-5.3a.11.11,0,0,1-.09,0s0-.07,0-.13l2.43-6.47q.21-.54.41,0l2.62,6.47a.19.19,0,0,1,0,.12s-.05,0-.12,0Z"/><path id="path3398-4-6-1-9-1-1-2" data-name="path3398-4-6-1-9-1-1" class="cls-4" d="M470.6,384.67l2.73,2.64q2,1.93,4.47,4.25,1.51,1.41,3.1,2.85l2.75,2.47,1.35,1.19q1.06.93,1.47,1.24t.54.29c.09,0,.16-.06.2-.26a11.09,11.09,0,0,0,.05-1.45l.06-14.06a4.3,4.3,0,0,1,.17-1.54,1,1,0,0,1,.85-.59l.4-.06H489a.46.46,0,0,0,.22,0,.14.14,0,0,0,.08-.12c0-.07,0-.12-.13-.14a1.46,1.46,0,0,0-.36,0q-.86,0-1.48,0l-.86,0-1.08,0q-.82,0-1.79,0a1.8,1.8,0,0,0-.4,0c-.1,0-.15.07-.15.14a.16.16,0,0,0,0,.12.26.26,0,0,0,.18,0l.57,0a6.86,6.86,0,0,1,.78.1,1.08,1.08,0,0,1,.85.63,4.48,4.48,0,0,1,.23,1.65l.3,12.19q-.74-.67-2.62-2.48t-4-3.79l-5.82-5.45-2.95-2.78-.5-.47a1,1,0,0,0-.46-.29c-.11,0-.19.07-.23.25a4.23,4.23,0,0,0-.07,1l0,13.75a10.31,10.31,0,0,1-.15,2.28c-.11.45-.34.71-.67.77a3.89,3.89,0,0,1-.64.12l-.49,0c-.14,0-.22,0-.22.14a.16.16,0,0,0,.12.16,1,1,0,0,0,.32,0q1,0,1.7,0l1,0,1,0q.77,0,2,0a1.13,1.13,0,0,0,.37,0,.15.15,0,0,0,.12-.15c0-.1-.08-.14-.22-.14l-.59,0A6.14,6.14,0,0,1,472,399a1.09,1.09,0,0,1-.8-.73,6.48,6.48,0,0,1-.28-2.06Z"/><path id="path3396-5-2-6-7-6-1-4" data-name="path3396-5-2-6-7-6-1" class="cls-4" d="M491.93,396.81a5.22,5.22,0,0,1-.87,1.52,2.2,2.2,0,0,1-1.45.73l-.41,0-.39,0a.37.37,0,0,0-.18,0,.12.12,0,0,0-.07.11c0,.07,0,.12.13.15a1.26,1.26,0,0,0,.4,0l1.93,0,1.19,0,.94,0,1.21,0a.8.8,0,0,0,.3,0,.15.15,0,0,0,.11-.15c0-.1-.09-.14-.28-.14h-.28a1.49,1.49,0,0,1-.7-.17.6.6,0,0,1-.35-.53,3.26,3.26,0,0,1,.1-.74,5.92,5.92,0,0,1,.29-.87l1.65-4.24a.28.28,0,0,1,.28-.19h5.93a.28.28,0,0,1,.15,0,.29.29,0,0,1,.09.11l2.56,5.9a.6.6,0,0,1,0,.45.32.32,0,0,1-.21.2.34.34,0,0,0-.14.06.13.13,0,0,0-.06.11c0,.07.07.11.22.13l.61,0,2.72,0H509a1.39,1.39,0,0,0,.39,0c.1,0,.16-.08.16-.15a.11.11,0,0,0-.08-.12.51.51,0,0,0-.2,0l-.5,0a3.65,3.65,0,0,1-.6-.12,2.16,2.16,0,0,1-1-.58,6.83,6.83,0,0,1-1.34-2.08q-.66-1.42-1.66-3.67l-2-4.59-1.8-4.07-.94-2.13a4.29,4.29,0,0,0-.37-.71q-.13-.17-.24-.15c-.08,0-.16,0-.24.17a5.15,5.15,0,0,0-.37.76Zm3.86-5.3a.11.11,0,0,1-.09,0s0-.07,0-.13l2.43-6.47q.21-.54.41,0l2.62,6.47a.19.19,0,0,1,0,.12s-.05,0-.12,0Z"/><path id="path12830-0-9-5-3-5-1-12-0-4-3-8-97-3" data-name="path12830-0-9-5-3-5-1-12-0-4-3-8-97" class="cls-3" d="M526,32.46c90.64,133,24.45,109-21.28,80.55l-12.32,28.25a71.35,71.35,0,0,0,33.6,8.28c36.73,0,66.49-27,66.49-60.32S562.76,32.46,526,32.46ZM504.75,113l4.56-11.58a1.14,1.14,0,0,1,1.11-.79h23.7a1.17,1.17,0,0,1,.64.21,1,1,0,0,1,.29.43l10.3,24.64a2.62,2.62,0,0,1,.23,1.86,1.24,1.24,0,0,1-.82.8,1.81,1.81,0,0,0-.64.27.58.58,0,0,0-.18.48c0,.29.31.46.88.54s1.4.12,2.46.16c4,.1,7.57.19,10.89.21s5.41,0,6.38,0a5.57,5.57,0,0,0,1.58-.21c.42-.12.69-.29.7-.58a.58.58,0,0,0-.35-.53,2.29,2.29,0,0,0-.82-.06,19.62,19.62,0,0,1-2-.1,14.17,14.17,0,0,1-2.4-.53,8.32,8.32,0,0,1-4.1-2.39c-9.05-13.16-14.06-28.74-20.19-43.22-2.76-6.53-5.17-12.12-7.2-16.94s-3.26-7.86-3.74-9a17.3,17.3,0,0,0-1.46-2.92c-.34-.47-.63-.68-.94-.64s-.66.17-1,.69a23.49,23.49,0,0,0-1.4,3.19l-21.6,53.47,5.09,2.55Zm-5.09-2.55c-23.5-14.26-40.18-31.54-40.18-21.24,0,20.2,11,38.11,27.8,49.06Zm22.13-42.26c.28,0,.6.36.88,1.11l10.42,27c.07.2.16.4.12.53s-.26.16-.52.16h-21c-.17,0-.33,0-.41-.11a.7.7,0,0,1,.06-.58l9.66-27c.28-.75.54-1.11.82-1.11h0Z"/><path id="path3383-2-6-1-1-1-5-3" data-name="path3383-2-6-1-1-1-5" class="cls-3" d="M515,169q0-2.75,0-3.76t0-1.5a1.84,1.84,0,0,1,.26-1,1.14,1.14,0,0,1,.82-.42l.51-.05.4,0a.3.3,0,0,0,.15,0,.12.12,0,0,0,.07-.11.15.15,0,0,0-.11-.15.92.92,0,0,0-.33,0l-1.75,0-1.23,0-1.14,0-2,0a.92.92,0,0,0-.33,0,.15.15,0,0,0-.11.15.12.12,0,0,0,.07.11.31.31,0,0,0,.15,0l.48,0a3.6,3.6,0,0,1,.46.05,1.42,1.42,0,0,1,.91.45,1.65,1.65,0,0,1,.27.94q0,.48,0,1.5t0,3.76v4.28q0,1.77,0,3.13a20.64,20.64,0,0,1-.12,2.15,3.19,3.19,0,0,1-.23.9.75.75,0,0,1-.57.44l-.41.07-.41,0a.27.27,0,0,0-.17,0,.12.12,0,0,0,0,.1.15.15,0,0,0,.11.15.88.88,0,0,0,.33,0h.73l.84,0h1.13l1.27,0,1.54.05,2,0,2.6,0a4.08,4.08,0,0,0,1.34-.12.72.72,0,0,0,.39-.54,10.68,10.68,0,0,0,.29-1.38,10.4,10.4,0,0,0,.12-1.05.82.82,0,0,0,0-.28.13.13,0,0,0-.13-.08.2.2,0,0,0-.18.09.56.56,0,0,0-.07.23,3,3,0,0,1-.25.76,2.93,2.93,0,0,1-.46.7,2.32,2.32,0,0,1-1.37.63,12.59,12.59,0,0,1-2,.1,13.75,13.75,0,0,1-2.3-.13,2,2,0,0,1-1-.43,2.6,2.6,0,0,1-.49-1.61q-.13-1.31-.12-4Z"/><path id="path3385-6-1-7-3-2-3-3" data-name="path3385-6-1-7-3-2-3" class="cls-3" d="M529.84,176.22c0,.21,0,.54,0,1s0,.93-.07,1.46a2.21,2.21,0,0,1-.23.9.82.82,0,0,1-.58.44l-.39.07-.39,0a.24.24,0,0,0-.16,0,.12.12,0,0,0,0,.1.15.15,0,0,0,.1.15.81.81,0,0,0,.32,0l1.52,0,1,0,1.11,0q1,0,2.09,0c.28,0,.42-.07.42-.2a.13.13,0,0,0,0-.1.24.24,0,0,0-.16,0l-.54,0-.63-.07a1.08,1.08,0,0,1-.81-.44,1.8,1.8,0,0,1-.26-.9c0-.53-.06-1-.07-1.46s0-.77,0-1v-2.1a9.67,9.67,0,0,1,0-1.19,4.3,4.3,0,0,1,.34-1.25q.29-.61,1.31-2.26t2.1-3.29q1.08-1.64,1.57-2.21a9.68,9.68,0,0,1,.71-.76,3.36,3.36,0,0,1,.67-.49,2.57,2.57,0,0,1,.65-.26,2.3,2.3,0,0,1,.55-.08.51.51,0,0,0,.25-.05.16.16,0,0,0,.09-.14s0-.08-.1-.11a.68.68,0,0,0-.24,0l-1.39,0-1.14,0-.68,0-1,0a1,1,0,0,0-.31,0c-.07,0-.11.06-.11.11a.16.16,0,0,0,.11.14l.28.1a.47.47,0,0,1,.33.24.93.93,0,0,1,.09.44,1.74,1.74,0,0,1-.09.55,2.94,2.94,0,0,1-.35.7q-.31.48-1.24,2t-1.85,3q-.92,1.54-1.22,2.14-.3-.46-1.36-2.16l-2.11-3.4q-1.05-1.7-1.32-2.16a3.65,3.65,0,0,1-.25-.5,1.26,1.26,0,0,1-.09-.45.4.4,0,0,1,.09-.26.69.69,0,0,1,.25-.18l.28-.11c.07,0,.11-.06.11-.11a.13.13,0,0,0-.06-.12.54.54,0,0,0-.28,0c-.52,0-1,0-1.41,0l-.78,0-1.15,0-1.43,0a.55.55,0,0,0-.26,0,.14.14,0,0,0-.08.12.15.15,0,0,0,.08.13.37.37,0,0,0,.18,0,1.77,1.77,0,0,1,.5.1,3,3,0,0,1,.62.29,4.87,4.87,0,0,1,.82.67,9.14,9.14,0,0,1,1,1.13q.51.72,1.55,2.3t2,3q.92,1.44,1.07,1.71a6.24,6.24,0,0,1,.43,1.05,5.58,5.58,0,0,1,.17,1.51Z"/><path id="path3387-0-54-1-8-0-9-3" data-name="path3387-0-54-1-8-0-9" class="cls-3" d="M551.25,163.27l3.29,0a6.3,6.3,0,0,1,2.52.41,1.1,1.1,0,0,1,.7.92l0,.27a.94.94,0,0,0,.06.33.14.14,0,0,0,.14.08.15.15,0,0,0,.13-.08.45.45,0,0,0,.05-.24q0-.27,0-1.16t0-1.5a.75.75,0,0,0,0-.2.11.11,0,0,0-.11-.09l-.26,0-.47.08a7.38,7.38,0,0,1-.77.09c-.31,0-.67,0-1.09,0h-9.8l-.87,0-1.2-.09a2.61,2.61,0,0,1-.77-.16,1.46,1.46,0,0,0-.38-.13c-.05,0-.1.07-.15.18s-.08.2-.11.28-.15.59-.31,1.24a12.83,12.83,0,0,0-.27,1.27c0,.14,0,.22.13.22a.2.2,0,0,0,.14,0,.48.48,0,0,0,.12-.19l.14-.28c.06-.11.16-.26.3-.47a1.52,1.52,0,0,1,.88-.59,7.23,7.23,0,0,1,1.79-.18l3.87,0v10.21q0,1.75,0,3.11c0,.9-.05,1.61-.11,2.13a3.28,3.28,0,0,1-.22.89.72.72,0,0,1-.54.44l-.39.06a2.8,2.8,0,0,1-.39,0,.26.26,0,0,0-.16,0,.13.13,0,0,0,0,.1.15.15,0,0,0,.1.15.87.87,0,0,0,.32,0l1.53,0,1,0,1.12,0q1,0,2.1,0c.28,0,.42-.07.42-.19a.13.13,0,0,0,0-.1.25.25,0,0,0-.16,0l-.54,0-.64-.06a1,1,0,0,1-.77-.44,2.11,2.11,0,0,1-.25-.89c-.06-.52-.1-1.23-.11-2.13s0-1.94,0-3.11Z"/><path id="path3389-1-20-1-7-1-2-3" data-name="path3389-1-20-1-7-1-2" class="cls-3" d="M564.87,169.08q0-2.74,0-3.75t0-1.49a2,2,0,0,1,.24-1,1,1,0,0,1,.72-.42l.37-.05.28,0a.27.27,0,0,0,.14,0,.13.13,0,0,0,.07-.11.15.15,0,0,0-.1-.15.83.83,0,0,0-.32,0l-1.52,0-1,0-1,0-1.59,0a.82.82,0,0,0-.32,0,.15.15,0,0,0-.1.15.13.13,0,0,0,.06.11.28.28,0,0,0,.14,0l.36,0a3.27,3.27,0,0,1,.44.08,1,1,0,0,1,.64.42,2,2,0,0,1,.25.94q0,.48,0,1.49t0,3.75v4.27q0,1.76,0,3.12t-.11,2.14a3.28,3.28,0,0,1-.22.9.71.71,0,0,1-.53.44l-.39.07-.39,0a.25.25,0,0,0-.16,0,.13.13,0,0,0,0,.1.15.15,0,0,0,.1.15.83.83,0,0,0,.31,0l1.52,0,1,0,1.11,0q1,0,2.09,0c.28,0,.42-.07.42-.19a.12.12,0,0,0,0-.1.25.25,0,0,0-.16,0l-.54,0-.63-.07a1,1,0,0,1-.77-.44,2.17,2.17,0,0,1-.24-.9q-.09-.78-.11-2.14t0-3.12Z"/><path id="path3391-6-9-5-4-6-4-3" data-name="path3391-6-9-5-4-6-4" class="cls-3" d="M579.46,180.86a23.52,23.52,0,0,0,2.55-.13,9.18,9.18,0,0,0,2.09-.43,1.32,1.32,0,0,0,.45-.25,1.17,1.17,0,0,0,.22-.46,16.12,16.12,0,0,0,.38-1.8q.17-1.08.19-1.31a.65.65,0,0,0,0-.26.15.15,0,0,0-.14-.11.18.18,0,0,0-.17.08.8.8,0,0,0-.09.28,5.28,5.28,0,0,1-.3,1,3.3,3.3,0,0,1-.65,1.06,4,4,0,0,1-1.9,1,11.24,11.24,0,0,1-2.58.24,9.59,9.59,0,0,1-4.86-1.28,9,9,0,0,1-3.25-3.26,8.74,8.74,0,0,1-1.19-4.38,11.27,11.27,0,0,1,.45-3.47,6.5,6.5,0,0,1,1.86-2.89,5.83,5.83,0,0,1,2-1.2,12.56,12.56,0,0,1,7-.16,6,6,0,0,1,2.06,1,2.81,2.81,0,0,1,.79,1.09,3.6,3.6,0,0,1,.29,1.4,1.27,1.27,0,0,0,0,.38.16.16,0,0,0,.17.13A.17.17,0,0,0,585,167a1.3,1.3,0,0,0,.07-.39c0-.21,0-.58,0-1.09s0-1,0-1.42.05-.74.08-.94a4.26,4.26,0,0,0,0-.43.23.23,0,0,0-.06-.18.45.45,0,0,0-.27-.09q-.61,0-1.26-.14l-1.37-.23q-1-.16-2-.23t-1.78-.06a13.92,13.92,0,0,0-4.83.76,8.66,8.66,0,0,0-3,1.85,9.16,9.16,0,0,0-2.3,3.53,9.35,9.35,0,0,0-.58,3.12,10.49,10.49,0,0,0,.62,3.68,8.47,8.47,0,0,0,2.49,3.53,10.14,10.14,0,0,0,3.56,2,16.21,16.21,0,0,0,4.93.67Z"/><path id="path3393-5-7-2-2-4-61-3" data-name="path3393-5-7-2-2-4-61" class="cls-3" d="M589.46,177.81a5.24,5.24,0,0,1-.86,1.52,2.18,2.18,0,0,1-1.44.73l-.41,0h-.39a.37.37,0,0,0-.18,0,.12.12,0,0,0-.07.11c0,.07,0,.12.13.15a1.29,1.29,0,0,0,.39,0l1.92,0,1.18,0,.93,0,1.2,0a.82.82,0,0,0,.3,0,.16.16,0,0,0,.11-.15c0-.1-.09-.14-.28-.14h-.27a1.48,1.48,0,0,1-.7-.17.6.6,0,0,1-.35-.53,3.3,3.3,0,0,1,.1-.74,6,6,0,0,1,.29-.87l1.64-4.24a.28.28,0,0,1,.27-.19h5.89a.29.29,0,0,1,.15,0,.3.3,0,0,1,.09.11l2.55,5.9a.6.6,0,0,1,0,.45.32.32,0,0,1-.21.2.34.34,0,0,0-.14.06.13.13,0,0,0-.05.11c0,.07.07.11.22.13l.61,0,2.71,0h1.6a1.43,1.43,0,0,0,.39,0c.1,0,.16-.08.16-.15a.12.12,0,0,0-.07-.12.52.52,0,0,0-.2,0,4.2,4.2,0,0,1-.5,0,3.49,3.49,0,0,1-.6-.12,2.15,2.15,0,0,1-1-.58,6.84,6.84,0,0,1-1.33-2.08q-.65-1.43-1.65-3.67l-2-4.59L597.82,165l-.93-2.13a4.34,4.34,0,0,0-.36-.71c-.08-.11-.16-.16-.24-.15s-.16,0-.24.17a5.11,5.11,0,0,0-.36.76Zm3.84-5.3a.11.11,0,0,1-.09,0s0-.07,0-.13l2.41-6.47c.14-.36.27-.36.41,0l2.6,6.47a.19.19,0,0,1,0,.12s-.05,0-.12,0Z"/><path id="path3396-5-2-6-7-6-1-5" data-name="path3396-5-2-6-7-6-1" class="cls-3" d="M448.36,177.81a5.22,5.22,0,0,1-.87,1.52,2.2,2.2,0,0,1-1.45.73l-.41,0-.39,0a.37.37,0,0,0-.18,0,.12.12,0,0,0-.07.11c0,.07,0,.12.13.15a1.26,1.26,0,0,0,.4,0l1.93,0,1.19,0,.94,0,1.21,0a.8.8,0,0,0,.3,0,.15.15,0,0,0,.11-.15c0-.1-.09-.14-.28-.14h-.28a1.49,1.49,0,0,1-.7-.17.6.6,0,0,1-.35-.53,3.26,3.26,0,0,1,.1-.74,5.92,5.92,0,0,1,.29-.87l1.65-4.24a.28.28,0,0,1,.28-.19h5.93a.28.28,0,0,1,.15,0,.29.29,0,0,1,.09.11l2.56,5.9a.6.6,0,0,1,0,.45.32.32,0,0,1-.21.2.34.34,0,0,0-.14.06.13.13,0,0,0-.06.11c0,.07.07.11.22.13l.61,0,2.72,0h1.61a1.39,1.39,0,0,0,.39,0c.1,0,.16-.08.16-.15a.11.11,0,0,0-.08-.12.51.51,0,0,0-.2,0l-.5,0a3.65,3.65,0,0,1-.6-.12,2.16,2.16,0,0,1-1-.58,6.83,6.83,0,0,1-1.34-2.08q-.66-1.42-1.66-3.67l-2-4.59-1.8-4.07-.94-2.13a4.29,4.29,0,0,0-.37-.71q-.13-.17-.24-.15c-.08,0-.16,0-.24.17a5.15,5.15,0,0,0-.37.76Zm3.86-5.3a.11.11,0,0,1-.09,0s0-.07,0-.13l2.43-6.47q.21-.54.41,0l2.62,6.47a.19.19,0,0,1,0,.12s-.05,0-.12,0Z"/><path id="path3398-4-6-1-9-1-1-3" data-name="path3398-4-6-1-9-1-1" class="cls-3" d="M470.6,165.67l2.73,2.64q2,1.93,4.47,4.25,1.51,1.41,3.1,2.85l2.75,2.47,1.35,1.19q1.06.93,1.47,1.24t.54.29c.09,0,.16-.06.2-.26a11.09,11.09,0,0,0,.05-1.45l.06-14.06a4.3,4.3,0,0,1,.17-1.54,1,1,0,0,1,.85-.59l.4-.06H489a.46.46,0,0,0,.22,0,.14.14,0,0,0,.08-.12c0-.07,0-.12-.13-.14a1.46,1.46,0,0,0-.36,0q-.86,0-1.48,0l-.86,0-1.08,0q-.82,0-1.79,0a1.8,1.8,0,0,0-.4,0c-.1,0-.15.07-.15.14a.16.16,0,0,0,0,.12.26.26,0,0,0,.18,0l.57,0a6.86,6.86,0,0,1,.78.1,1.08,1.08,0,0,1,.85.63,4.48,4.48,0,0,1,.23,1.65l.3,12.19q-.74-.67-2.62-2.48t-4-3.79l-5.82-5.45-2.95-2.78-.5-.47a1,1,0,0,0-.46-.29c-.11,0-.19.07-.23.25a4.23,4.23,0,0,0-.07,1l0,13.75a10.31,10.31,0,0,1-.15,2.28c-.11.45-.34.71-.67.77a3.89,3.89,0,0,1-.64.12l-.49,0c-.14,0-.22,0-.22.14a.16.16,0,0,0,.12.16,1,1,0,0,0,.32,0q1,0,1.7,0l1,0,1,0q.77,0,2,0a1.13,1.13,0,0,0,.37,0,.15.15,0,0,0,.12-.15c0-.1-.08-.14-.22-.14l-.59,0A6.14,6.14,0,0,1,472,180a1.09,1.09,0,0,1-.8-.73,6.48,6.48,0,0,1-.28-2.06Z"/><path id="path3396-5-2-6-7-6-1-6" data-name="path3396-5-2-6-7-6-1" class="cls-3" d="M491.93,177.81a5.22,5.22,0,0,1-.87,1.52,2.2,2.2,0,0,1-1.45.73l-.41,0-.39,0a.37.37,0,0,0-.18,0,.12.12,0,0,0-.07.11c0,.07,0,.12.13.15a1.26,1.26,0,0,0,.4,0l1.93,0,1.19,0,.94,0,1.21,0a.8.8,0,0,0,.3,0,.15.15,0,0,0,.11-.15c0-.1-.09-.14-.28-.14h-.28a1.49,1.49,0,0,1-.7-.17.6.6,0,0,1-.35-.53,3.26,3.26,0,0,1,.1-.74,5.92,5.92,0,0,1,.29-.87l1.65-4.24a.28.28,0,0,1,.28-.19h5.93a.28.28,0,0,1,.15,0,.29.29,0,0,1,.09.11l2.56,5.9a.6.6,0,0,1,0,.45.32.32,0,0,1-.21.2.34.34,0,0,0-.14.06.13.13,0,0,0-.06.11c0,.07.07.11.22.13l.61,0,2.72,0H509a1.39,1.39,0,0,0,.39,0c.1,0,.16-.08.16-.15a.11.11,0,0,0-.08-.12.51.51,0,0,0-.2,0l-.5,0a3.65,3.65,0,0,1-.6-.12,2.16,2.16,0,0,1-1-.58,6.83,6.83,0,0,1-1.34-2.08q-.66-1.42-1.66-3.67l-2-4.59-1.8-4.07-.94-2.13a4.29,4.29,0,0,0-.37-.71q-.13-.17-.24-.15c-.08,0-.16,0-.24.17a5.15,5.15,0,0,0-.37.76Zm3.86-5.3a.11.11,0,0,1-.09,0s0-.07,0-.13l2.43-6.47q.21-.54.41,0l2.62,6.47a.19.19,0,0,1,0,.12s-.05,0-.12,0Z"/></svg>